<svg xmlns="http://www.w3.org/2000/svg" viewBox="0 0 606.38 141.09"><g id="Layer_2" data-name="Layer 2"><g id="Layer_1-2" data-name="Layer 1"><path d="M99.43,40.23l-.9-.91A21,21,0,0,1,92.4,24.49V23a23,23,0,0,0-23-23h0a23,23,0,0,0-23,23v2a21,21,0,0,1-6.13,14.83l-.45.46a21,21,0,0,1-14.9,6.19H21a21,21,0,0,0-21,21V115a23,23,0,0,0,23,23h0a23,23,0,0,0,23-23V67.46a21,21,0,0,1,6.12-14.83l.45-.45A21,21,0,0,1,67.46,46h4.35a21,21,0,0,1,14.9,6.19h0A21,21,0,0,1,92.83,67v2.4a23,23,0,0,0,23,23h0a23,23,0,0,0,23-23v-2a21,21,0,0,0-21-21h-3.47A21,21,0,0,1,99.43,40.23Z"/><path d="M187.11,18.22h28.14q9,0,14.69,4.89,6.84,5.57,7.14,15.86-.21,15.14-13.91,20.6l16.67,33h-13L212,60.79H198V92.56h-10.9ZM198,50.81h16.54q6.15-.11,9.21-3.69a11.67,11.67,0,0,0,3-8.18q-.09-5.82-3.61-8.43c-1.85-1.54-4.52-2.3-8-2.3H198Z"/><path d="M308.59,75.94H281.28l-5.53,16.62H264.19l26.18-74.34h9.13l26.18,74.34H314.17Zm-3.11-10L295.06,33.43h-.2L284.44,66Z"/><path d="M356.26,18.22h10.28l20.65,48.46,20.25-48.46h10.31V92.56h-10.9V46.2h-.25L391.53,81.9h-9.09L367.37,46.2h-.2V92.56H356.26Z"/><path d="M456.29,18.22h10.28l20.64,48.46,20.26-48.46h10.31V92.56h-10.9V46.2h-.25L491.56,81.9h-9.1L467.39,46.2h-.2V92.56h-10.9Z"/><path d="M556.32,18.22h26.1a40.83,40.83,0,0,1,8.21.81,21.92,21.92,0,0,1,8,4.39,17.67,17.67,0,0,1,5.52,7.13,23.71,23.71,0,0,1,2.22,10.61,23,23,0,0,1-5.63,15q-5.79,7.14-16.91,7.34H567.22v29h-10.9ZM567.22,53h16.19c4.05-.07,7.11-1.37,9.15-3.9a12.85,12.85,0,0,0,2.92-8.2,14.74,14.74,0,0,0-1.19-6.29,9.25,9.25,0,0,0-3.46-3.64,13.34,13.34,0,0,0-7.82-2.1H567.22Z"/><path d="M201.41,131.31c-1.14,2.14-3.38,3.09-6.36,3.09-5,0-7.94-3.23-7.94-8.3v-2.43c0-5.22,3-8.23,7.94-8.23a7.47,7.47,0,0,1,6.36,2.86l-2.32,1.62a4.82,4.82,0,0,0-4-1.84c-3.16,0-5,2.13-5,5.59v2.43c0,3.16,1.47,5.66,5,5.66a4.31,4.31,0,0,0,4.08-2.06Z"/><path d="M222.22,134.11h-2.94v-1.8c-.91,1.39-2.2,2.09-4.92,2.09-3.93,0-6.69-2.05-6.69-7.2V115.73h2.94v11.43c0,3.71,2,4.52,4.19,4.52a4.28,4.28,0,0,0,4.48-4.48V115.73h2.94Z"/><path d="M230.32,108.74h2.94v19c0,2,.11,3.68,3.13,3.68v2.72c-4.63,0-6.07-1.84-6.07-5.66Z"/><path d="M242.09,115.73h2.36v-4h2.94v4h4.22v2.65h-4.22v9.33c0,2.54.29,3.6,2.76,3.6h1.46v2.8H250c-4.33,0-5.58-1.84-5.58-5.66V118.38h-2.36Z"/><path d="M259,108.74h3.31v3.31H259Zm.19,7h2.94v18.38h-2.94Z"/><path d="M286.51,115.73l-7.35,18.38h-2.94l-7.5-18.38H272l5.59,14.63,5.58-14.63Z"/><path d="M298.55,123.48h4.37v-2.13c0-2.61-1.21-3.2-4.08-3.2-2.21,0-3.38.19-4.41,1.88l-2.21-1.55c1.29-2.13,3.16-3,6.66-3,4.66,0,7,1.5,7,5.91v12.76h-2.94v-1.8c-1,1.69-2.28,2.09-4.67,2.09-4.26,0-6.58-2.09-6.58-5.66C291.67,124.77,294.5,123.48,298.55,123.48Zm4.37,2.5h-4.37c-2.91,0-3.94,1-3.94,2.83,0,2.06,1.47,2.87,3.64,2.87,2.72,0,4.67-.51,4.67-4.63Z"/><path d="M312.34,115.73h2.36v-4h2.94v4h4.22v2.65h-4.22v9.33c0,2.54.29,3.6,2.75,3.6h1.47v2.8h-1.58c-4.33,0-5.58-1.84-5.58-5.66V118.38h-2.36Z"/><path d="M342.24,131.31c-1.29,2.25-3.24,3.09-6.44,3.09-4.92,0-7.86-3.2-7.86-8.3v-2.43c0-5.22,2.46-8.23,7.28-8.23s7.27,3,7.27,8.23v1.91H330.88v.52c0,3.16,1.51,5.66,4.7,5.66,2.39,0,3.61-.7,4.38-2.06ZM330.88,123h8.64c-.15-3.09-1.51-4.93-4.3-4.93S331.06,120,330.88,123Z"/><path d="M365.56,117.57c1-1.36,2.57-2.13,5-2.13,4.56,0,7.35,3,7.35,8.23v2.43c0,4.77-2.35,8.3-7.35,8.3-2.46,0-4-.62-5-1.91v1.62h-2.94V108.74h2.94ZM375,126.1v-2.43c0-3.49-1.69-5.59-4.7-5.59s-4.71,2-4.71,5.33v2.69c0,3.16,1.32,5.66,4.71,5.66C373.39,131.76,375,129.22,375,126.1Z"/><path d="M395.05,119.7a3.47,3.47,0,0,0-3.08-1.55c-2.25,0-3.94,1.7-3.94,4.45v11.51h-2.94V115.73H388v1.8c.78-1.29,2-2.09,4.27-2.09a5.83,5.83,0,0,1,5.25,2.49Z"/><path d="M408.48,123.48h4.37v-2.13c0-2.61-1.21-3.2-4.08-3.2-2.2,0-3.38.19-4.41,1.88l-2.2-1.55c1.28-2.13,3.16-3,6.65-3,4.67,0,7,1.5,7,5.91v12.76h-2.95v-1.8c-1,1.69-2.27,2.09-4.66,2.09-4.27,0-6.58-2.09-6.58-5.66C401.61,124.77,404.44,123.48,408.48,123.48Zm4.37,2.5h-4.37c-2.9,0-3.93,1-3.93,2.83,0,2.06,1.47,2.87,3.64,2.87,2.72,0,4.66-.51,4.66-4.63Z"/><path d="M423.9,115.73h2.94v1.8c.92-1.4,2.2-2.09,4.92-2.09,3.94,0,6.69,2,6.69,7.2v11.47h-2.94V122.68c0-3.72-2-4.53-4.19-4.53a4.28,4.28,0,0,0-4.48,4.49v11.47H423.9Z"/><path d="M458,108.74h2.94v25.37H458v-1.62c-1,1.29-2.57,1.91-5,1.91-5,0-7.36-3.53-7.36-8.3v-2.43c0-5.26,2.8-8.23,7.36-8.23,2.42,0,4,.77,5,2.13Zm0,17.61v-2.68c0-3.46-1.69-5.59-4.7-5.59s-4.71,2.1-4.71,5.59v2.43c0,3.12,1.58,5.66,4.71,5.66S458,129.4,458,126.35Z"/><path d="M481.53,108.74h2.94v19c0,2,.11,3.68,3.12,3.68v2.72c-4.63,0-6.06-1.84-6.06-5.66Z"/><path d="M509.29,126.1c0,4.77-2.35,8.3-7.65,8.3-4.89,0-7.64-3.23-7.64-8.3v-2.43c0-5.22,2.83-8.23,7.64-8.23s7.65,3,7.65,8.23Zm-2.94,0v-2.43c0-3.49-1.69-5.59-4.71-5.59s-4.7,2.13-4.7,5.59v2.43c0,3.16,1.32,5.66,4.7,5.66C504.77,131.76,506.35,129.22,506.35,126.1Z"/><path d="M521.47,134.29l-7.21-18.56h3.17L522.9,130l4.82-14.26h3.12l-6.47,19c-1.5,4.41-2.5,6.39-7.64,6.39v-2.87c2.42,0,3.56-.4,4.66-3.67Z"/><path d="M542.87,123.48h4.38v-2.13c0-2.61-1.22-3.2-4.08-3.2-2.21,0-3.39.19-4.41,1.88l-2.21-1.55c1.29-2.13,3.16-3,6.65-3,4.67,0,7,1.5,7,5.91v12.76h-2.94v-1.8c-1,1.69-2.28,2.09-4.67,2.09-4.27,0-6.58-2.09-6.58-5.66C536,124.77,538.83,123.48,542.87,123.48Zm4.38,2.5h-4.38c-2.9,0-3.93,1-3.93,2.83,0,2.06,1.47,2.87,3.64,2.87,2.72,0,4.67-.51,4.67-4.63Z"/><path d="M558.29,108.74h2.94v19c0,2,.11,3.68,3.12,3.68v2.72c-4.63,0-6.06-1.84-6.06-5.66Z"/><path d="M570.06,115.73h2.35v-4h2.94v4h4.23v2.65h-4.23v9.33c0,2.54.29,3.6,2.76,3.6h1.47v2.8H578c-4.34,0-5.59-1.84-5.59-5.66V118.38h-2.35Z"/><path d="M591.57,134.29l-7.21-18.56h3.16L593,130l4.82-14.26h3.12l-6.47,19c-1.51,4.41-2.5,6.39-7.64,6.39v-2.87c2.42,0,3.56-.4,4.66-3.67Z"/></g></g></svg>