<svg xmlns="http://www.w3.org/2000/svg" width="473.927" height="400.5" viewBox="0 0 473.927 400.5">
  <g id="Group_801" data-name="Group 801" transform="translate(-266.578 -167.5)">
    <g id="_2" data-name="2" transform="translate(359.417 167.5)">
      <g id="Group_674" data-name="Group 674">
        <g id="Group_628" data-name="Group 628" transform="translate(34.529 332.535)">
          <path id="Path_1149" data-name="Path 1149" d="M675.369,1185.606s-22.969.177-17.336,17.717,96.652,57.85,203.586,48.1,50.149-44.716,50.149-44.716,53.873,8.859,43.567-21.1Z" transform="translate(-656.818 -1185.279)" fill="#fff"/>
          <path id="Path_1150" data-name="Path 1150" d="M827.831,1252.571a378.5,378.5,0,0,1-106.756-15.324c-38.465-11.543-61.323-26.091-64.023-34.5-1.485-4.625-1.139-8.49,1.03-11.489,4.693-6.489,16.13-6.651,16.615-6.655h279.97a.327.327,0,0,1,.309.221c2.174,6.319,1.669,11.427-1.5,15.181-4.111,4.869-12.511,7.415-24.968,7.567a114.9,114.9,0,0,1-15.995-1.008c4,2.731,15.967,11.828,13.7,21.5-2.714,11.566-24.66,19.307-65.23,23.006C849.541,1252.117,838.458,1252.571,827.831,1252.571ZM674.7,1185.26c-.115,0-11.593.165-16.091,6.386-2.039,2.82-2.354,6.489-.936,10.9,2.647,8.243,25.34,22.593,63.588,34.071a377.926,377.926,0,0,0,106.566,15.3c10.612,0,21.669-.453,33.091-1.495,21.939-2,38.582-5.229,49.467-9.6,8.9-3.572,14.013-7.915,15.185-12.908,2.552-10.871-14.473-21.5-14.645-21.608a.327.327,0,0,1,.224-.6c.322.053,32.3,5.16,41.823-6.123,2.975-3.523,3.464-8.341,1.457-14.326H674.7Z" transform="translate(-656.148 -1184.606)" fill="#1a1a1a"/>
        </g>
        <g id="Group_629" data-name="Group 629" transform="translate(0 237.213)">
          <path id="Path_1151" data-name="Path 1151" d="M551.9,895.923s-7.5,33.043,41.32,34.942C590.186,908.782,573.862,887.4,551.9,895.923Z" transform="translate(-551.178 -893.694)" fill="#fff"/>
          <path id="Path_1152" data-name="Path 1152" d="M592.583,930.549h-.013c-17.618-.685-29.947-5.461-36.645-14.194-7.463-9.729-5.007-21.035-4.981-21.148a.326.326,0,0,1,.2-.232c7.742-3.006,15.422-2.483,22.21,1.512a37.057,37.057,0,0,1,13.007,13.97,56.077,56.077,0,0,1,6.545,19.721.327.327,0,0,1-.324.371ZM551.548,895.52c-.269,1.426-1.884,11.605,4.9,20.445,6.526,8.5,18.554,13.182,35.754,13.914-2.071-14.318-9.573-27.174-19.181-32.829C566.463,893.19,559.04,892.662,551.548,895.52Z" transform="translate(-550.537 -893.051)" fill="#1a1a1a"/>
        </g>
        <g id="Group_630" data-name="Group 630" transform="translate(1.663 286.416)">
          <path id="Path_1153" data-name="Path 1153" d="M556.624,1069.468s6.6-29.358,45.123-24.377C597.037,1061.558,581.868,1077.053,556.624,1069.468Z" transform="translate(-556.297 -1044.203)" fill="#fff"/>
          <path id="Path_1154" data-name="Path 1154" d="M568.63,1071.136a44.431,44.431,0,0,1-12.774-2.012.327.327,0,0,1-.225-.385,33.6,33.6,0,0,1,8.2-14.211c5.951-6.182,17.249-13.008,37.284-10.418a.327.327,0,0,1,.272.414c-2.87,10.035-9.155,18.325-17.243,22.745A31.874,31.874,0,0,1,568.63,1071.136Zm-12.285-2.548c10.363,3.049,19.61,2.413,27.486-1.892,7.837-4.283,13.952-12.282,16.821-21.985-19.509-2.419-30.519,4.225-36.328,10.248A33.414,33.414,0,0,0,556.346,1068.588Z" transform="translate(-555.624 -1043.547)" fill="#1a1a1a"/>
        </g>
        <g id="Group_631" data-name="Group 631" transform="translate(11.197 249.502)">
          <path id="Path_1155" data-name="Path 1155" d="M653.371,986.209a.325.325,0,0,1-.2-.072l-68.258-54.918a.327.327,0,0,1,.41-.51l68.258,54.918a.327.327,0,0,1-.205.582Z" transform="translate(-584.786 -930.638)" fill="#1a1a1a"/>
        </g>
        <g id="Group_632" data-name="Group 632" transform="translate(41.706 223.229)">
          <path id="Path_1156" data-name="Path 1156" d="M690.435,902.374s-24.343-13.215-1.554-51.1C703.1,865.694,708.7,892.828,690.435,902.374Z" transform="translate(-678.801 -850.951)" fill="#fff"/>
          <path id="Path_1157" data-name="Path 1157" d="M689.736,902.029a.329.329,0,0,1-.156-.04,24.4,24.4,0,0,1-10.453-14.434c-2.8-10.292.149-22.78,8.775-37.118a.327.327,0,0,1,.513-.061c9.341,9.473,14.624,24.017,12.846,35.368a21.284,21.284,0,0,1-11.373,16.247A.326.326,0,0,1,689.736,902.029Zm-1.492-50.891c-8.358,14.019-11.214,26.206-8.491,36.229a23.921,23.921,0,0,0,9.99,13.961,20.651,20.651,0,0,0,10.871-15.685C702.344,874.6,697.266,860.477,688.245,851.138Z" transform="translate(-678.102 -850.279)" fill="#1a1a1a"/>
        </g>
        <g id="Group_633" data-name="Group 633" transform="translate(51.459 223.229)">
          <path id="Path_1158" data-name="Path 1158" d="M710,911.1a.327.327,0,0,1-.327-.317l-1.739-60.17a.327.327,0,1,1,.654-.019l1.739,60.17a.326.326,0,0,1-.317.336Z" transform="translate(-707.933 -850.277)" fill="#1a1a1a"/>
        </g>
        <g id="Group_634" data-name="Group 634" transform="translate(15.098 283.385)">
          <path id="Path_1159" data-name="Path 1159" d="M597.043,1055.964a.327.327,0,0,1-.158-.613l38.214-21.034a.327.327,0,1,1,.316.573L597.2,1055.923A.328.328,0,0,1,597.043,1055.964Z" transform="translate(-596.716 -1034.275)" fill="#1a1a1a"/>
        </g>
        <g id="Group_635" data-name="Group 635" transform="translate(100.853 73.398)">
          <path id="Path_1160" data-name="Path 1160" d="M888.023,417.65s0-9.1-3.323-12.134-20.369-5.779-23.98-12.425c-1.734-.867-.434,4.479,4.189,10.258s12.213,6.159,13.019,10.059a17.621,17.621,0,0,1,.542,5.2Z" transform="translate(-859.666 -392.672)" fill="#fff"/>
          <path id="Path_1161" data-name="Path 1161" d="M877.816,418.264a.327.327,0,0,1-.324-.372,17.8,17.8,0,0,0-.538-5.09c-.373-1.8-2.387-2.824-4.937-4.115-2.527-1.28-5.671-2.872-8.018-5.806-3.748-4.685-5.648-9.565-4.781-10.636a.741.741,0,0,1,.993-.118.328.328,0,0,1,.141.136c2.21,4.068,9.755,6.691,15.816,8.8,3.656,1.272,6.814,2.37,8.1,3.541,3.39,3.1,3.429,12,3.429,12.375a.327.327,0,0,1-.294.325l-9.553.96Zm-18.079-25.611h-.012c-.472.391.757,4.784,4.784,9.819,2.258,2.823,5.2,4.315,7.8,5.631s4.845,2.454,5.282,4.566a21.849,21.849,0,0,1,.573,4.9l8.87-.891c-.037-1.575-.363-9-3.212-11.6-1.184-1.081-4.283-2.158-7.872-3.406-6.121-2.128-13.726-4.773-16.121-9A.3.3,0,0,0,859.738,392.652Z" transform="translate(-859.011 -391.999)" fill="#1a1a1a"/>
        </g>
        <g id="Group_636" data-name="Group 636" transform="translate(291.656 239.062)">
          <path id="Path_1162" data-name="Path 1162" d="M1443.609,968.624s13.977-50.712,49.081-68.916c18.528,37.058-37.054,77.368-37.054,77.368Z" transform="translate(-1443.282 -899.381)" fill="#fff"/>
          <path id="Path_1163" data-name="Path 1163" d="M1454.963,976.729a.326.326,0,0,1-.188-.06l-12.027-8.452a.327.327,0,0,1-.127-.354,155.5,155.5,0,0,1,11.4-27.7c7.213-13.685,19.634-31.98,37.843-41.423a.326.326,0,0,1,.252-.021.329.329,0,0,1,.191.165c4.264,8.529,4.953,17.936,2.048,27.96-2.317,7.995-6.914,16.4-13.663,24.97a146.782,146.782,0,0,1-25.54,24.85A.327.327,0,0,1,1454.963,976.729Zm-11.648-8.913L1454.958,976a146.5,146.5,0,0,0,25.231-24.6c10.447-13.274,20.917-33.028,11.683-51.924-17.9,9.409-30.14,27.465-37.27,40.993A156.507,156.507,0,0,0,1443.315,967.816Z" transform="translate(-1442.61 -898.707)" fill="#1a1a1a"/>
        </g>
        <g id="Group_637" data-name="Group 637" transform="translate(308.601 266.627)">
          <path id="Path_1164" data-name="Path 1164" d="M1495.439,1026.012s45.505-48.436,71.833-41.285c-8.776,52.012-55.907,56.888-55.907,56.888Z" transform="translate(-1495.112 -983.684)" fill="#f16552"/>
          <path id="Path_1165" data-name="Path 1165" d="M1510.692,1041.278a.327.327,0,0,1-.229-.094l-15.927-15.6a.327.327,0,0,1-.01-.458,243.276,243.276,0,0,1,26.084-23.36c8.536-6.527,16.451-11.428,23.524-14.566,8.883-3.941,16.469-5.1,22.55-3.45a.327.327,0,0,1,.237.37c-2.01,11.914-6.214,22.334-12.5,30.969a63.692,63.692,0,0,1-18.9,17.205,67.512,67.512,0,0,1-24.8,8.984Zm-15.468-15.939,15.585,15.269a67.392,67.392,0,0,0,24.4-8.891c11.64-6.984,26.447-20.873,31.016-47.414-13.447-3.422-31.984,7.862-45.212,17.975A243.706,243.706,0,0,0,1495.224,1025.339Z" transform="translate(-1494.438 -983.019)"/>
        </g>
        <g id="Group_638" data-name="Group 638" transform="translate(318.087 281.395)">
          <path id="Path_1166" data-name="Path 1166" d="M1523.779,1057.158a.327.327,0,0,1-.067-.647c17.432-3.694,42.822-27.989,43.076-28.233a.327.327,0,1,1,.453.471c-.256.246-25.779,24.669-43.394,28.4A.33.33,0,0,1,1523.779,1057.158Z" transform="translate(-1523.452 -1028.187)" fill="#1a1a1a"/>
        </g>
        <g id="Group_639" data-name="Group 639" transform="translate(303.104 254.666)">
          <path id="Path_1167" data-name="Path 1167" d="M1477.953,987.975a.327.327,0,0,1-.158-.614c10.059-5.526,30.075-40.411,30.276-40.763a.327.327,0,1,1,.568.324c-.824,1.442-20.309,35.4-30.529,41.012A.326.326,0,0,1,1477.953,987.975Z" transform="translate(-1477.626 -946.434)" fill="#1a1a1a"/>
        </g>
        <g id="Group_640" data-name="Group 640" transform="translate(50.097 234.827)">
          <path id="Path_1168" data-name="Path 1168" d="M707.409,984.481H987.375a50.145,50.145,0,0,0-71.508-54.03c-10.466-31.109-41-48.526-68.042-42.476-20.1,4.5-36.325,21.524-42.038,43.343-16.857-20.611-45.33-27.223-68.475-16.471C711.992,926.611,698.718,956.52,707.409,984.481Z" transform="translate(-704.427 -886.447)" fill="#fff"/>
          <path id="Path_1169" data-name="Path 1169" d="M986.716,984.115H706.749a.327.327,0,0,1-.312-.23,59.209,59.209,0,0,1,2.21-41.119,55.662,55.662,0,0,1,64.678-32.456,59.451,59.451,0,0,1,31.651,19.618,64.07,64.07,0,0,1,15.542-27.7,53.213,53.213,0,0,1,26.578-15.268c13.381-2.993,27.756-.385,40.477,7.344a65.76,65.76,0,0,1,27.826,35,50.532,50.532,0,0,1,71.64,54.542A.327.327,0,0,1,986.716,984.115Zm-279.726-.654H986.442a49.817,49.817,0,0,0-71.091-53.409.327.327,0,0,1-.453-.19c-10.071-29.933-39.79-48.5-67.66-42.262-19.685,4.4-36.09,21.324-41.794,43.107a.327.327,0,0,1-.569.124c-16.753-20.485-44.75-27.221-68.084-16.381C711.329,926.279,698.548,955.913,706.99,983.461Z" transform="translate(-703.767 -885.754)" fill="#1a1a1a"/>
        </g>
        <g id="Group_641" data-name="Group 641" transform="translate(52.589 332.371)">
          <path id="Path_1170" data-name="Path 1170" d="M991.845,1185.087H711.878a.49.49,0,1,1,0-.981H991.845a.49.49,0,1,1,0,.981Z" transform="translate(-711.388 -1184.106)" fill="#1a1a1a"/>
        </g>
        <g id="Group_642" data-name="Group 642" transform="translate(201.997 330.803)">
          <path id="Path_1171" data-name="Path 1171" d="M1177.977,1179.807l-9.1,12.353,12.893,7.26,8.126-14.087Z" transform="translate(-1168.712 -1179.644)" fill="#1c0311"/>
          <path id="Path_1172" data-name="Path 1172" d="M1181.432,1199.248a.162.162,0,0,1-.08-.021l-12.893-7.26a.164.164,0,0,1-.051-.239l9.1-12.353a.165.165,0,0,1,.2-.051l11.918,5.526a.164.164,0,0,1,.073.23l-8.126,14.087A.163.163,0,0,1,1181.432,1199.248Zm-12.652-7.475,12.591,7.09,7.956-13.792-11.635-5.395Z" transform="translate(-1168.375 -1179.308)" fill="#1a1a1a"/>
        </g>
        <g id="Group_643" data-name="Group 643" transform="translate(189.136 342.313)">
          <path id="Path_1173" data-name="Path 1173" d="M1155.067,1248.6c1.824,1.216,3.952,1.52,5.471,3.04a55.88,55.88,0,0,0,9.531,7.349c1.3-1.808,2.35-4.941.006-9.629-4.045-8.091-14.3-29.04-14.3-29.04l-10.871-4.66s-5.742-.867-8.343,1.842c-1.66,1.73-4.819,4.519-6.522,7.213A192.282,192.282,0,0,0,1155.067,1248.6Z" transform="translate(-1129.711 -1215.198)" fill="#fff"/>
          <path id="Path_1174" data-name="Path 1174" d="M1169.4,1258.633a.324.324,0,0,1-.177-.052,56.136,56.136,0,0,1-9.585-7.392,9.111,9.111,0,0,0-3.014-1.779,14.691,14.691,0,0,1-2.407-1.22l-.021-.015a191.454,191.454,0,0,1-25.071-23.925.327.327,0,0,1-.032-.392,36.464,36.464,0,0,1,5.18-5.882c.511-.5.994-.977,1.383-1.382,2.687-2.8,8.386-1.975,8.627-1.939a.325.325,0,0,1,.08.023l10.871,4.659a.325.325,0,0,1,.165.157c.1.209,10.3,21.041,14.3,29.037,2.416,4.833,1.316,8.087-.033,9.966A.326.326,0,0,1,1169.4,1258.633Zm-14.809-10.98a14.211,14.211,0,0,0,2.292,1.156,9.745,9.745,0,0,1,3.218,1.918,54.667,54.667,0,0,0,9.21,7.133c1.156-1.767,1.966-4.71-.2-9.035-3.849-7.7-13.444-27.287-14.25-28.934l-10.719-4.594c-.507-.068-5.676-.689-8.018,1.75-.4.412-.882.89-1.4,1.4a37.6,37.6,0,0,0-4.953,5.559A190.469,190.469,0,0,0,1154.586,1247.653Z" transform="translate(-1129.037 -1214.514)" fill="#1a1a1a"/>
        </g>
        <g id="Group_644" data-name="Group 644" transform="translate(188.14 351.668)">
          <path id="Path_1175" data-name="Path 1175" d="M1158.157,1270.553c-1.52-1.52-3.648-1.824-5.471-3.04a192.276,192.276,0,0,1-25.029-23.885c-.964,1.525-1.463,3.02-.954,4.273,1.408,3.468,38.968,31.93,38.968,31.93a7.239,7.239,0,0,0,2.016-1.93A55.892,55.892,0,0,1,1158.157,1270.553Z" transform="translate(-1126.334 -1243.464)" fill="#1c0311"/>
          <path id="Path_1176" data-name="Path 1176" d="M1165.33,1279.657a.162.162,0,0,1-.1-.033c-1.535-1.163-37.612-28.529-39.021-32-.481-1.185-.165-2.631.967-4.422a.163.163,0,0,1,.26-.021,190.948,190.948,0,0,0,25.008,23.865,14.335,14.335,0,0,0,2.319,1.17,9.616,9.616,0,0,1,3.167,1.883h0a55.72,55.72,0,0,0,9.5,7.326.163.163,0,0,1,.044.233,7.336,7.336,0,0,1-2.068,1.976A.161.161,0,0,1,1165.33,1279.657Zm-37.991-36.094c-.978,1.609-1.248,2.9-.826,3.94,1.343,3.306,36.778,30.239,38.826,31.793a7.334,7.334,0,0,0,1.772-1.688,55.525,55.525,0,0,1-9.411-7.276h0a9.228,9.228,0,0,0-3.065-1.814,14.543,14.543,0,0,1-2.381-1.206A190.986,190.986,0,0,1,1127.338,1243.563Z" transform="translate(-1125.992 -1243.127)" fill="#1a1a1a"/>
        </g>
        <g id="Group_645" data-name="Group 645" transform="translate(95.201 179.512)">
          <path id="Path_1177" data-name="Path 1177" d="M943.373,781.354c-37.7,9.1-113.547-38.576-98.812-57.647s69.125,12.353,69.125,12.353l28.323-4.226Z" transform="translate(-842.372 -717.237)" fill="#f16552"/>
          <path id="Path_1178" data-name="Path 1178" d="M932.288,782.143c-12.472,0-27.99-4.038-44.256-11.674-19.2-9.011-36.018-21.649-42.852-32.2-4.014-6.2-4.542-11.533-1.526-15.437,3.429-4.438,9.246-6.539,17.288-6.242,6.378.235,14.173,1.971,23.168,5.159a200.463,200.463,0,0,1,28.992,13.3l28.211-4.209a.327.327,0,1,1,.1.647l-28.323,4.226a.325.325,0,0,1-.212-.041,199.635,199.635,0,0,0-28.99-13.306c-13.982-4.954-32.221-8.826-39.713.87-2.831,3.664-2.293,8.741,1.557,14.682,6.773,10.453,23.487,23,42.581,31.961,21.1,9.906,40.909,13.728,54.338,10.486a.327.327,0,1,1,.154.636A44.963,44.963,0,0,1,932.288,782.143Z" transform="translate(-841.724 -716.564)"/>
        </g>
        <g id="Group_646" data-name="Group 646" transform="translate(166.73 179.512)">
          <path id="Path_1179" data-name="Path 1179" d="M1061.5,764.667c6.176,7.152,84.512,22.105,84.512,22.105s-36.731,59.164-42.582,82.569c0,12.353,14.3,6.5,14.3,6.5s71.508-70.216,70.858-96.873-62.407-31.858-62.407-31.858-6.5-27.564-11.051-29.548l-33.7,6.143Z" transform="translate(-1061.177 -717.237)" fill="#f16552"/>
          <path id="Path_1180" data-name="Path 1180" d="M1110.219,876.889a8.564,8.564,0,0,1-4.807-1.26c-1.976-1.326-2.977-3.668-2.977-6.961a.325.325,0,0,1,.01-.08c5.542-22.172,39.122-76.985,42.372-82.258-7.108-1.366-78.235-15.178-84.232-22.123a.327.327,0,0,1,.495-.428c6.031,6.985,83.544,21.849,84.326,22a.326.326,0,0,1,.216.493c-.367.591-36.731,59.322-42.533,82.437.008,3.039.912,5.185,2.687,6.377,3.783,2.541,10.413.074,11.105-.2,1.034-1.019,18.469-18.259,35.609-38.376,23.23-27.264,35.369-47.392,35.105-58.209-.146-5.971-3.472-11.342-9.887-15.964-5.172-3.726-12.345-6.974-21.319-9.653a175.051,175.051,0,0,0-30.9-5.923.327.327,0,0,1-.291-.251c-1.784-7.562-7.168-27.431-10.778-29.283l-33.592,6.124a.327.327,0,1,1-.117-.643l33.7-6.143a.328.328,0,0,1,.189.022c4.474,1.951,10.5,26.7,11.184,29.543a176.023,176.023,0,0,1,30.79,5.924c9.047,2.7,16.287,5.98,21.52,9.749,6.592,4.748,10.01,10.293,10.161,16.48.272,11.138-11.593,30.872-35.264,58.652-17.6,20.658-35.514,38.286-35.693,38.461a.325.325,0,0,1-.105.069A20.749,20.749,0,0,1,1110.219,876.889Z" transform="translate(-1060.505 -716.565)"/>
        </g>
        <g id="Group_647" data-name="Group 647" transform="translate(166.351 183.855)">
          <path id="Path_1181" data-name="Path 1181" d="M1059.847,744.664s15.063,9.63,30.99,8.33,29.171-15.179,29.171-15.179l-3.138-7.468Z" transform="translate(-1059.684 -730.183)" fill="#1c0311"/>
          <path id="Path_1182" data-name="Path 1182" d="M1087.528,752.94c-14.669,0-27.964-8.384-28.105-8.475a.163.163,0,0,1,.048-.3l57.023-14.317a.162.162,0,0,1,.19.1l3.138,7.468a.164.164,0,0,1-.032.176c-.133.139-13.47,13.939-29.276,15.229C1089.515,752.9,1088.518,752.94,1087.528,752.94Zm-27.6-8.549c2.291,1.377,16.157,9.28,30.56,8.1,15.07-1.23,27.9-13.942,28.992-15.052l-3.042-7.239Z" transform="translate(-1059.348 -729.847)" fill="#1a1a1a"/>
        </g>
        <g id="Group_648" data-name="Group 648" transform="translate(162.512 97.56)">
          <path id="Path_1183" data-name="Path 1183" d="M1063.494,466.9s-23.945,61.114-11.268,100.448c52.331,18.2,60.349-17.554,60.349-17.554s-6.826-81.594-27.953-82.244Z" transform="translate(-1048.223 -466.574)" fill="#fff"/>
          <path id="Path_1184" data-name="Path 1184" d="M1078.315,572.186c-7.89,0-16.847-1.734-26.815-5.2a.326.326,0,0,1-.2-.209c-6.571-20.388-3.153-46.679.872-65.145a262.1,262.1,0,0,1,10.4-35.523.326.326,0,0,1,.314-.208l21.127.65c8.932.275,16.4,14.279,22.21,41.625a378.816,378.816,0,0,1,6.06,40.919.333.333,0,0,1-.007.1,31.06,31.06,0,0,1-14.664,18.434A39.106,39.106,0,0,1,1078.315,572.186Zm-26.447-5.766c19.042,6.6,34.325,6.811,45.424.635a30.385,30.385,0,0,0,14.333-17.959c-.212-2.443-7.253-81.265-27.633-81.892l-20.9-.643a263.758,263.758,0,0,0-10.292,35.219C1048.809,520.117,1045.411,546.2,1051.869,566.42Z" transform="translate(-1047.605 -465.9)" fill="#1a1a1a"/>
        </g>
        <g id="Group_649" data-name="Group 649" transform="translate(195.605 237.614)">
          <path id="Path_1185" data-name="Path 1185" d="M1153.657,894.777l9.426,2.492-4.713,13.111-9.047-2.492Z" transform="translate(-1149.16 -894.614)" fill="#1c0311"/>
          <path id="Path_1186" data-name="Path 1186" d="M1158.034,910.208a.151.151,0,0,1-.043-.006l-9.047-2.492a.163.163,0,0,1-.111-.209l4.334-13.111a.164.164,0,0,1,.2-.107l9.426,2.492a.164.164,0,0,1,.112.213l-4.713,13.111A.163.163,0,0,1,1158.034,910.208Zm-8.838-2.768,8.735,2.406,4.6-12.8-9.1-2.408Z" transform="translate(-1148.824 -894.278)" fill="#1a1a1a"/>
        </g>
        <g id="Group_650" data-name="Group 650" transform="translate(98.163 181.779)">
          <path id="Path_1187" data-name="Path 1187" d="M881.425,724.5s71.105,45.161,75.981,54.913c-3.9,14.628-6.5,15.6-6.5,15.6s-83.5-12.568-99.12-52.282Z" transform="translate(-851.458 -724.17)" fill="#f16552"/>
          <path id="Path_1188" data-name="Path 1188" d="M950.231,794.668a.34.34,0,0,1-.049,0A267,267,0,0,1,906.419,783.4c-13.28-4.716-24.522-10.149-33.414-16.147-11.142-7.517-18.611-15.953-22.2-25.075a.327.327,0,1,1,.609-.239c8.023,20.4,34.458,33.472,55.222,40.846A266.99,266.99,0,0,0,950.169,794c.38-.276,2.8-2.457,6.215-15.225-5.247-9.785-75.1-54.226-75.808-54.675a.327.327,0,1,1,.35-.552c2.906,1.846,71.238,45.321,76.1,55.043a.328.328,0,0,1,.024.231c-3.833,14.376-6.42,15.719-6.7,15.826A.328.328,0,0,1,950.231,794.668Z" transform="translate(-850.784 -723.497)"/>
        </g>
        <g id="Group_651" data-name="Group 651" transform="translate(126.578 97.738)">
          <path id="Path_1189" data-name="Path 1189" d="M983.074,503.13s-19.936,55.218-40.305,47.763,42.041-84.258,47.355-83.447Z" transform="translate(-938.37 -467.114)" fill="#fff"/>
          <path id="Path_1190" data-name="Path 1190" d="M945.943,551.24a11.448,11.448,0,0,1-3.962-.709c-4.06-1.486-5.244-5.65-3.519-12.376,3.7-14.426,19.467-36.23,26.074-44.935,10-13.178,22.385-27.162,24.961-26.766a.327.327,0,0,1-.1.647c-1.774-.267-12.573,11.01-24.341,26.515-6.583,8.673-22.292,30.392-25.962,44.7-1.628,6.346-.581,10.249,3.11,11.6a11.625,11.625,0,0,0,9.172-.627c16.366-7.64,30.571-46.548,30.713-46.94a.327.327,0,0,1,.615.222,191.052,191.052,0,0,1-9.2,20.684c-7.513,14.409-14.863,23.368-21.847,26.627A13.457,13.457,0,0,1,945.943,551.24Z" transform="translate(-937.695 -466.445)" fill="#1a1a1a"/>
        </g>
        <g id="Group_652" data-name="Group 652" transform="translate(156.603 47.465)">
          <path id="Path_1191" data-name="Path 1191" d="M1051.4,352.25s1.733,12.714,1.878,18.2c8.379,5.49,16.762-2.3,17.191-4.19-2.889-6.79-6.356-17.193-6.356-17.193s2.456-38-21.236-35.253S1033.915,358.9,1051.4,352.25Z" transform="translate(-1030.216 -313.351)" fill="#fff"/>
          <path id="Path_1192" data-name="Path 1192" d="M1058.815,372.037a11.506,11.506,0,0,1-6.405-1.981.326.326,0,0,1-.147-.265c-.128-4.863-1.528-15.565-1.821-17.768-4.234,1.44-8.682.187-12.57-3.557-6.808-6.555-10.116-18.492-7.376-26.61,1.232-3.648,4.253-8.176,11.655-9.034,5.278-.612,9.7.737,13.14,4.008,9.516,9.045,8.537,30.185,8.464,31.526.287.856,3.589,10.673,6.327,17.109a.327.327,0,0,1,.018.2c-.275,1.214-3.022,3.991-6.534,5.409A12.737,12.737,0,0,1,1058.815,372.037Zm-5.9-2.436a11.036,11.036,0,0,0,10.409.867c3.516-1.42,5.792-3.948,6.114-4.855-2.852-6.728-6.285-17.007-6.32-17.11a.32.32,0,0,1-.016-.125c.014-.219,1.3-21.991-8.259-31.075-3.294-3.13-7.538-4.419-12.613-3.832-5.59.648-9.432,3.62-11.111,8.594-2.622,7.767.679,19.641,7.21,25.929,3.813,3.672,8.172,4.836,12.271,3.278a.326.326,0,0,1,.44.261C1051.052,351.661,1052.737,364.066,1052.911,369.6Z" transform="translate(-1029.532 -312.679)" fill="#1a1a1a"/>
        </g>
        <g id="Group_653" data-name="Group 653" transform="translate(202.917 231.192)">
          <path id="Path_1193" data-name="Path 1193" d="M1177.281,882.424l-5.093,15.82s8.222-.153,24.378-1.517c16.685-1.408,21.886-16.579,15.6-20.263S1183.053,882.314,1177.281,882.424Z" transform="translate(-1171.862 -875.296)" fill="#fff"/>
          <path id="Path_1194" data-name="Path 1194" d="M1171.516,897.908a.327.327,0,0,1-.311-.427l5.092-15.82a.327.327,0,0,1,.305-.227c1.962-.037,6.012-1.209,10.7-2.565,8.971-2.6,20.136-5.825,24.358-3.35,2.323,1.362,3.25,4.2,2.479,7.6-1.307,5.76-7.565,12.369-18.219,13.269-15.982,1.349-24.317,1.516-24.4,1.518Zm5.333-15.829-4.881,15.164c1.944-.054,10.039-.334,23.9-1.5,10.327-.872,16.381-7.227,17.636-12.762.7-3.106-.107-5.683-2.172-6.894-3.979-2.333-14.995.854-23.846,3.414C1182.926,880.816,1178.966,881.962,1176.85,882.079Z" transform="translate(-1171.19 -874.633)" fill="#1a1a1a"/>
        </g>
        <g id="Group_654" data-name="Group 654" transform="translate(117.983 96.078)">
          <path id="Path_1195" data-name="Path 1195" d="M921.014,541.355c-1.211-6.72-8.61-77.754-8.61-77.754s10.835-3.684,12.135,1.733,17.218,43.924,15.415,64.729Z" transform="translate(-912.077 -462.048)" fill="#fff"/>
          <path id="Path_1196" data-name="Path 1196" d="M920.341,541a.327.327,0,0,1-.322-.269c-1.2-6.655-8.539-77.068-8.613-77.779a.327.327,0,0,1,.22-.343c.292-.1,7.184-2.407,10.69-.474a3.666,3.666,0,0,1,1.867,2.441c.263,1.095,1.141,3.589,2.357,7.039,4.708,13.368,14.506,41.186,13.066,57.794a.327.327,0,1,1-.651-.057c1.428-16.467-8.338-44.195-13.032-57.52-1.222-3.47-2.1-5.976-2.375-7.1A3,3,0,0,0,922,462.712c-2.9-1.6-8.656.049-9.917.441.5,4.758,7.421,71.041,8.579,77.466a.327.327,0,0,1-.264.38A.318.318,0,0,1,920.341,541Z" transform="translate(-911.404 -461.37)" fill="#1a1a1a"/>
        </g>
        <g id="Group_655" data-name="Group 655" transform="translate(152.219 41.446)">
          <path id="Path_1197" data-name="Path 1197" d="M1029.614,363.218s-3.424-2.1-.824-10.333-7.8-18.854-10.4-27.847-3.9-23.081,7.284-20.69c1.867-6.928,8.967-9.977,20.9-9.543s4.1,19.938,24.684,25.356,12.948,30.611,5.817,35.15c-6.7-3.8-16.652-3.34-16.652-3.34s-8.451-12.522-9.318-21.67c4.551-8.281-5.417-11.873-5.417-6.455-8.4.552-17.552-7.8-17.552-7.8s-5.347,1.981-4.189,7.73c.829,4.116,3.088,8.813,7.829,14.334,4.27,2.642,6.979,2.787,10.229,1.414.384,2.941,1.38,11.565,1.38,11.565a8.073,8.073,0,0,0-4.882,2.5C1036.108,355.984,1029.614,363.218,1029.614,363.218Z" transform="translate(-1016.444 -294.602)" fill="#1c0311"/>
          <path id="Path_1198" data-name="Path 1198" d="M1029.29,363.048a.162.162,0,0,1-.085-.024c-.144-.088-3.5-2.26-.894-10.522,1.613-5.11-1.917-11.274-5.331-17.235-2.016-3.52-4.1-7.16-5.072-10.517-2-6.933-2.924-15.655.508-19.339,1.544-1.658,3.837-2.191,6.817-1.588,1.909-6.751,8.982-9.953,21.028-9.515,5.4.2,6.862,4.288,8.558,9.025,2.128,5.943,4.776,13.339,16.161,16.336,9.486,2.5,12.4,8.951,13.178,13.927,1.348,8.639-2.826,18.661-7.315,21.52a.163.163,0,0,1-.169,0c-6.58-3.738-16.464-3.323-16.563-3.319a.159.159,0,0,1-.143-.072c-.085-.126-8.484-12.662-9.345-21.747a.165.165,0,0,1,.02-.094c2.218-4.036.739-6.462,0-7.318a3.676,3.676,0,0,0-3.786-1.327,2.2,2.2,0,0,0-1.324,2.268.164.164,0,0,1-.153.163c-.268.018-.537.026-.806.026-7.737,0-15.914-7.029-16.79-7.8a6.51,6.51,0,0,0-4,7.508c.916,4.552,3.46,9.211,7.776,14.241,4,2.471,6.635,2.834,10.058,1.389a.163.163,0,0,1,.226.129c.38,2.908,1.37,11.481,1.38,11.567a.162.162,0,0,1-.038.125.164.164,0,0,1-.117.058,8,8,0,0,0-4.774,2.455c-2.368,2.365-8.822,9.552-8.887,9.624A.163.163,0,0,1,1029.29,363.048Zm-6.281-59.138a5.674,5.674,0,0,0-4.354,1.724c-3.339,3.584-2.413,12.178-.433,19.025.96,3.319,3.035,6.942,5.041,10.446,3.449,6.022,7.016,12.25,5.359,17.5-2.257,7.148.1,9.609.646,10.064.832-.925,6.588-7.317,8.8-9.525a8.421,8.421,0,0,1,4.816-2.535c-.137-1.185-.967-8.342-1.333-11.184-3.408,1.38-6.191.961-10.18-1.508a.156.156,0,0,1-.038-.032c-4.363-5.081-6.936-9.794-7.865-14.409-1.172-5.819,4.238-7.895,4.293-7.915a.164.164,0,0,1,.167.032c.091.082,9.087,8.2,17.281,7.768a2.455,2.455,0,0,1,1.534-2.421,4.006,4.006,0,0,1,4.147,1.42c.781.9,2.345,3.456.064,7.645.843,8.631,8.536,20.414,9.236,21.47,1.025-.033,10.246-.222,16.561,3.316,4.286-2.822,8.385-12.814,7.086-21.14-.761-4.879-3.624-11.209-12.939-13.661-11.552-3.04-14.232-10.527-16.386-16.542-1.724-4.816-3.086-8.621-8.262-8.809-12.13-.441-18.914,2.641-20.741,9.422a.163.163,0,0,1-.192.117A11.085,11.085,0,0,0,1023.009,303.91Z" transform="translate(-1016.121 -294.268)" fill="#1a1a1a"/>
        </g>
        <g id="Group_656" data-name="Group 656" transform="translate(203.537 241.207)">
          <path id="Path_1199" data-name="Path 1199" d="M1183.681,906.267s-13.435,15.9-8.523,18.137,18.828,3.232,19.582-1.811-2.969-13.088-2.969-13.088Z" transform="translate(-1173.754 -905.94)" fill="#fff"/>
          <path id="Path_1200" data-name="Path 1200" d="M1185.083,925.9a29.227,29.227,0,0,1-10.728-1.874,2.051,2.051,0,0,1-1.2-1.49c-1.015-4.517,9.172-16.642,9.607-17.156a.327.327,0,0,1,.371-.092l8.09,3.238a.328.328,0,0,1,.176.166c.153.332,3.754,8.192,3,13.274a3.571,3.571,0,0,1-2.045,2.591A16.166,16.166,0,0,1,1185.083,925.9Zm-1.97-19.916c-1.279,1.543-10.2,12.488-9.317,16.409a1.41,1.41,0,0,0,.831,1.038c3.87,1.761,13.409,2.728,17.412.552a2.955,2.955,0,0,0,1.711-2.114c.682-4.561-2.44-11.779-2.889-12.785Z" transform="translate(-1173.086 -905.266)" fill="#1a1a1a"/>
        </g>
        <g id="Group_657" data-name="Group 657" transform="translate(198.583 98.328)">
          <path id="Path_1201" data-name="Path 1201" d="M1158.934,469.4s27.953-5.386,24.811,41.858c-3.311,49.783.1,107.492.1,107.492s-4.865.48-11.238-6.846c-3.6-16.993-10.421-115.383-10.421-115.383Z" transform="translate(-1158.607 -468.902)" fill="#fff"/>
          <path id="Path_1202" data-name="Path 1202" d="M1182.956,618.438c-1.089,0-5.587-.432-11.27-6.966a.325.325,0,0,1-.073-.147c-3.558-16.821-10.359-114.444-10.427-115.427a.327.327,0,0,1,.652-.045c.068.982,6.843,98.24,10.4,115.255,5.231,5.984,9.434,6.616,10.589,6.67-.273-4.882-3.22-59.943-.078-107.187,1.2-18.005-1.933-30.439-9.305-36.958a19.218,19.218,0,0,0-15.118-4.557.327.327,0,0,1-.123-.642,19.893,19.893,0,0,1,15.665,4.7c7.538,6.658,10.746,19.274,9.534,37.5-3.271,49.192.064,106.874.1,107.451a.327.327,0,0,1-.294.345C1183.178,618.431,1183.095,618.438,1182.956,618.438Z" transform="translate(-1157.934 -468.252)" fill="#1a1a1a"/>
        </g>
        <g id="Group_658" data-name="Group 658" transform="translate(212.621 353.47)">
          <path id="Path_1203" data-name="Path 1203" d="M1210.347,1266.814a.49.49,0,0,1-.061-.977c2.12-.266,7.577-1.468,7.374-3.805a.776.776,0,0,0-.292-.562c-.966-.8-3.919-.513-6.292-.28-2.862.281-4.509.4-5.08-.392-.779-1.083.858-2.39,2.754-3.9.908-.725,2.6-2.074,2.533-2.5h0a.363.363,0,0,0-.091-.065c-.79-.435-2.477-.212-4.109,0-2.351.312-4.782.634-5.92-.693a1.084,1.084,0,0,1-.232-1.1c.684-1.939,8.138-3.47,10.407-3.893a.49.49,0,0,1,.179.964c-4.383.817-9.323,2.294-9.661,3.254-.009.025-.018.052.052.134.791.923,3.051.623,5.046.359,1.871-.248,3.639-.482,4.711.108a1.043,1.043,0,0,1,.595.841c.079.923-1.049,1.874-2.9,3.349-.872.7-2.687,2.145-2.573,2.56.289.376,2.732.137,4.192-.006,2.818-.276,5.733-.562,7.014.5a1.744,1.744,0,0,1,.642,1.232c.321,3.687-7.353,4.754-8.229,4.863A.455.455,0,0,1,1210.347,1266.814Z" transform="translate(-1200.869 -1248.64)" fill="#1a1a1a"/>
        </g>
        <g id="Group_659" data-name="Group 659" transform="translate(223.047 237.173)">
          <path id="Path_1204" data-name="Path 1204" d="M1238.887,901.65a.872.872,0,0,1-.147-.012c-.825-.14-1.139-1.309-1.66-3.245a26.568,26.568,0,0,0-1.245-3.829,1.505,1.505,0,0,0-.417-.648c-.464.208-1.259,2.6-1.684,5.07a.49.49,0,1,1-.967-.166c.365-2.124,1.18-5.714,2.543-5.883.832-.106,1.276.9,1.423,1.23a27.371,27.371,0,0,1,1.295,3.971,9.845,9.845,0,0,0,.868,2.51,1.592,1.592,0,0,0,.342-.4,19.708,19.708,0,0,0,2.308-5.983.491.491,0,0,1,.962.193,20.332,20.332,0,0,1-2.459,6.343C1239.795,901.176,1239.407,901.65,1238.887,901.65Z" transform="translate(-1232.76 -892.929)" fill="#1a1a1a"/>
        </g>
        <g id="Group_660" data-name="Group 660" transform="translate(177.619 83.515)">
          <path id="Path_1205" data-name="Path 1205" d="M1097.782,423.442l-3.47,2.686.436,2.876S1097.818,423.911,1097.782,423.442Z" transform="translate(-1094.149 -423.279)" fill="#1c0311"/>
          <path id="Path_1206" data-name="Path 1206" d="M1094.412,428.832a.15.15,0,0,1-.032,0,.163.163,0,0,1-.13-.136l-.437-2.876a.163.163,0,0,1,.062-.154l3.47-2.686a.163.163,0,0,1,.263.117c.038.484-2.33,4.454-3.056,5.66A.164.164,0,0,1,1094.412,428.832Zm-.26-2.969.354,2.332c1.087-1.817,2.181-3.736,2.6-4.618Z" transform="translate(-1093.812 -422.942)" fill="#1a1a1a"/>
        </g>
        <g id="Group_661" data-name="Group 661" transform="translate(184.543 111.525)">
          <path id="Path_1207" data-name="Path 1207" d="M1116.707,509.614s-.975,17.879-.65,21.672Z" transform="translate(-1115.663 -509.287)" fill="#fff"/>
          <path id="Path_1208" data-name="Path 1208" d="M1115.382,530.94a.327.327,0,0,1-.325-.3c-.323-3.772.609-20.986.649-21.717a.327.327,0,1,1,.653.036c-.01.178-.97,17.9-.651,21.626a.327.327,0,0,1-.3.354Z" transform="translate(-1114.989 -508.615)" fill="#1a1a1a"/>
        </g>
        <g id="Group_662" data-name="Group 662" transform="translate(182.84 135.57)">
          <circle id="Ellipse_146" data-name="Ellipse 146" cx="1.565" cy="1.565" r="1.565" transform="translate(0.327 0.327)" fill="#fff"/>
          <path id="Path_1209" data-name="Path 1209" d="M1111.672,585.943a1.892,1.892,0,1,1,1.892-1.892A1.894,1.894,0,0,1,1111.672,585.943Zm0-3.129a1.238,1.238,0,1,0,1.238,1.238A1.239,1.239,0,0,0,1111.672,582.814Z" transform="translate(-1109.781 -582.16)" fill="#1a1a1a"/>
        </g>
        <g id="Group_663" data-name="Group 663" transform="translate(182.84 163.212)">
          <circle id="Ellipse_147" data-name="Ellipse 147" cx="2.185" cy="2.185" r="2.185" transform="translate(0.327 0.327)" fill="#fff"/>
          <path id="Path_1210" data-name="Path 1210" d="M1112.293,671.731a2.512,2.512,0,1,1,2.512-2.512A2.515,2.515,0,0,1,1112.293,671.731Zm0-4.37a1.858,1.858,0,1,0,1.858,1.858A1.86,1.86,0,0,0,1112.293,667.361Z" transform="translate(-1109.781 -666.707)" fill="#1a1a1a"/>
        </g>
        <g id="Group_664" data-name="Group 664" transform="translate(185.025 152.592)">
          <path id="Path_1211" data-name="Path 1211" d="M1117.025,643.386a.327.327,0,0,1-.327-.32c-.053-2.516-.233-8.444-.235-8.5a.327.327,0,0,1,.654-.02c0,.06.181,5.991.235,8.509a.328.328,0,0,1-.32.334Z" transform="translate(-1116.464 -634.225)" fill="#1a1a1a"/>
        </g>
        <g id="Group_665" data-name="Group 665" transform="translate(184.8 173.831)">
          <path id="Path_1212" data-name="Path 1212" d="M1116.562,712.519a.327.327,0,0,1-.316-.245c-.87-3.372-.27-12.4-.244-12.782a.327.327,0,0,1,.652.044c-.006.093-.619,9.3.225,12.574a.327.327,0,0,1-.235.4A.323.323,0,0,1,1116.562,712.519Z" transform="translate(-1115.776 -699.187)" fill="#1a1a1a"/>
        </g>
        <g id="Group_666" data-name="Group 666" transform="translate(78.085)">
          <ellipse id="Ellipse_148" data-name="Ellipse 148" cx="30.341" cy="30.344" rx="30.341" ry="30.344" transform="translate(0.327 0.327)" fill="#fff"/>
          <path id="Path_1213" data-name="Path 1213" d="M820.039,228.842a30.671,30.671,0,1,1,30.668-30.671A30.7,30.7,0,0,1,820.039,228.842Zm0-60.689a30.017,30.017,0,1,0,30.014,30.018A30.05,30.05,0,0,0,820.039,168.154Z" transform="translate(-789.371 -167.5)" fill="#1a1a1a"/>
        </g>
        <g id="Group_667" data-name="Group 667" transform="translate(91.171 16.625)">
          <path id="Path_1214" data-name="Path 1214" d="M850.385,247.278a24.608,24.608,0,0,1-2.73,1.321,24.665,24.665,0,0,1-2.732-1.321c-8.794-4.9-19.181-16.591-12.268-24.207,5.636-6.2,11.625-3.388,15-.811,3.377-2.577,9.364-5.393,15,.811C869.567,230.686,859.179,242.376,850.385,247.278Z" transform="translate(-830.072 -219.01)" fill="#f16552"/>
          <path id="Path_1215" data-name="Path 1215" d="M846.979,248.265a.329.329,0,0,1-.122-.024,24.958,24.958,0,0,1-2.769-1.339c-6.425-3.582-13.486-10.608-14.551-17.1a8.717,8.717,0,0,1,2.2-7.608c5.781-6.365,11.953-3.445,15.242-1,3.29-2.443,9.462-5.361,15.24,1a8.718,8.718,0,0,1,2.2,7.609c-1.066,6.5-8.127,13.523-14.551,17.1h0a24.87,24.87,0,0,1-2.767,1.339A.328.328,0,0,1,846.979,248.265Zm-7.5-29.287c-2.343,0-4.831.979-7.259,3.652a8.091,8.091,0,0,0-2.039,7.062c1.031,6.292,7.936,13.133,14.224,16.639a24.572,24.572,0,0,0,2.573,1.253,24.522,24.522,0,0,0,2.571-1.253h0c6.287-3.5,13.191-10.344,14.224-16.638a8.091,8.091,0,0,0-2.038-7.064c-5.266-5.8-10.823-3.621-14.557-.772a.328.328,0,0,1-.4,0A12.408,12.408,0,0,0,839.48,218.978Zm10.229,27.639h0Z" transform="translate(-829.397 -218.349)"/>
        </g>
        <g id="Group_668" data-name="Group 668" transform="translate(230.323 21.781)">
          <path id="Path_1216" data-name="Path 1216" d="M1311.392,235.121H1268.52a12.505,12.505,0,0,0-12.5,12.506v7.334a12.506,12.506,0,0,0,11.141,12.431l-7.568,13.333,15.988-13.258h35.816a12.5,12.5,0,0,0,12.5-12.506v-7.334A12.505,12.505,0,0,0,1311.392,235.121Z" transform="translate(-1255.688 -234.794)" fill="#fff"/>
          <path id="Path_1217" data-name="Path 1217" d="M1258.915,280.379a.327.327,0,0,1-.284-.488l7.328-12.91a12.8,12.8,0,0,1-10.943-12.693v-7.334a12.847,12.847,0,0,1,12.831-12.833h42.873a12.847,12.847,0,0,1,12.831,12.833v7.334a12.847,12.847,0,0,1-12.831,12.833h-35.7l-15.9,13.183A.325.325,0,0,1,1258.915,280.379Zm8.932-45.6a12.192,12.192,0,0,0-12.178,12.179v7.334a12.151,12.151,0,0,0,10.849,12.106.327.327,0,0,1,.249.486l-6.687,11.781,14.614-12.118a.326.326,0,0,1,.209-.076h35.816a12.192,12.192,0,0,0,12.177-12.179v-7.334a12.192,12.192,0,0,0-12.177-12.179Z" transform="translate(-1255.015 -234.121)" fill="#1a1a1a"/>
        </g>
        <g id="Group_669" data-name="Group 669" transform="translate(242.358 33.535)">
          <circle id="Ellipse_149" data-name="Ellipse 149" cx="3.267" cy="3.267" r="3.267" transform="translate(0.327 0.327)" fill="#fff"/>
          <path id="Path_1218" data-name="Path 1218" d="M1295.418,277.26a3.595,3.595,0,1,1,3.594-3.595A3.6,3.6,0,0,1,1295.418,277.26Zm0-6.535a2.941,2.941,0,1,0,2.94,2.94A2.944,2.944,0,0,0,1295.418,270.725Z" transform="translate(-1291.824 -270.071)" fill="#1a1a1a"/>
        </g>
        <g id="Group_670" data-name="Group 670" transform="translate(260.997 33.535)">
          <circle id="Ellipse_150" data-name="Ellipse 150" cx="3.267" cy="3.267" r="3.267" transform="translate(0.327 0.327)" fill="#fff"/>
          <path id="Path_1219" data-name="Path 1219" d="M1352.428,277.26a3.595,3.595,0,1,1,3.594-3.595A3.6,3.6,0,0,1,1352.428,277.26Zm0-6.535a2.941,2.941,0,1,0,2.94,2.94A2.944,2.944,0,0,0,1352.428,270.725Z" transform="translate(-1348.834 -270.071)" fill="#1a1a1a"/>
        </g>
        <g id="Group_671" data-name="Group 671" transform="translate(279.636 33.535)">
          <circle id="Ellipse_151" data-name="Ellipse 151" cx="3.267" cy="3.267" r="3.267" transform="translate(0.327 0.327)" fill="#fff"/>
          <path id="Path_1220" data-name="Path 1220" d="M1409.439,277.26a3.595,3.595,0,1,1,3.594-3.595A3.6,3.6,0,0,1,1409.439,277.26Zm0-6.535a2.941,2.941,0,1,0,2.94,2.94A2.944,2.944,0,0,0,1409.439,270.725Z" transform="translate(-1405.845 -270.071)" fill="#1a1a1a"/>
        </g>
        <g id="Group_672" data-name="Group 672" transform="translate(22.988 149.558)">
          <ellipse id="Ellipse_152" data-name="Ellipse 152" cx="11.539" cy="11.54" rx="11.539" ry="11.54" transform="translate(0.327 0.327)" fill="#ff812c"/>
          <path id="Path_1221" data-name="Path 1221" d="M632.717,648.68a11.867,11.867,0,1,1,11.866-11.867A11.88,11.88,0,0,1,632.717,648.68Zm0-23.081a11.213,11.213,0,1,0,11.212,11.213A11.225,11.225,0,0,0,632.717,625.6Z" transform="translate(-620.851 -624.946)"/>
        </g>
        <g id="Group_673" data-name="Group 673" transform="translate(82.642 226.241)">
          <circle id="Ellipse_153" data-name="Ellipse 153" cx="9.101" cy="9.101" r="9.101" transform="translate(0.163 0.164)" fill="#1c0311"/>
          <path id="Path_1222" data-name="Path 1222" d="M812.574,878.021a9.266,9.266,0,1,1,9.265-9.266A9.275,9.275,0,0,1,812.574,878.021Zm0-18.2a8.939,8.939,0,1,0,8.938,8.939A8.948,8.948,0,0,0,812.574,859.817Z" transform="translate(-803.31 -859.49)" fill="#1a1a1a"/>
        </g>
      </g>
    </g>
    <g id="_7" data-name="7" transform="translate(266.578 184.344)">
      <g id="Group_800" data-name="Group 800" transform="translate(0 0)">
        <g id="Group_676" data-name="Group 676" transform="translate(0 2.826)">
          <g id="Group_675" data-name="Group 675">
            <path id="Path_1223" data-name="Path 1223" d="M267.578,240.718l52.575,220.637L476.81,444.67,425.742,237.728l-151.607-9.062Z" transform="translate(-267.251 -228.339)" fill="#fff"/>
            <path id="Path_1224" data-name="Path 1224" d="M319.48,461.008a.327.327,0,0,1-.318-.251L266.587,240.12a.324.324,0,0,1,.031-.232l6.556-12.052a.323.323,0,0,1,.307-.17l151.607,9.062a.327.327,0,0,1,.3.248l51.068,206.942a.326.326,0,0,1-.283.4L319.515,461.006ZM267.252,240.09l52.48,220.235,156-16.615L424.809,237.366,273.65,228.331Z" transform="translate(-266.578 -227.665)" fill="#1a1a1a"/>
          </g>
        </g>
        <g id="Group_678" data-name="Group 678" transform="translate(9.121 11.116)">
          <g id="Group_677" data-name="Group 677">
            <path id="Path_1225" data-name="Path 1225" d="M502.964,453.392l-49.11-199.372L295.475,256.5l50.832,213.576Z" transform="translate(-295.148 -253.694)" fill="#fff"/>
            <path id="Path_1226" data-name="Path 1226" d="M345.634,469.732a.326.326,0,0,1-.317-.251L294.484,255.9a.327.327,0,0,1,.313-.4l158.379-2.481a.329.329,0,0,1,.322.248l49.11,199.372a.327.327,0,0,1-.283.4L345.669,469.73ZM295.214,256.15l50.671,212.9,156-16.615L452.925,253.679Z" transform="translate(-294.475 -253.021)" fill="#1a1a1a"/>
          </g>
        </g>
        <g id="Group_685" data-name="Group 685" transform="translate(24.065 70.686)">
          <g id="Group_680" data-name="Group 680" transform="translate(0 5.63)">
            <g id="Group_679" data-name="Group 679">
              <path id="Path_1227" data-name="Path 1227" d="M340.512,453.169a.327.327,0,0,1-.011-.654l1.96-.071a.327.327,0,0,1,.024.654l-1.96.071Z" transform="translate(-340.185 -452.444)" fill="#1a1a1a"/>
            </g>
          </g>
          <g id="Group_682" data-name="Group 682" transform="translate(5.914 0.213)">
            <g id="Group_681" data-name="Group 681">
              <path id="Path_1228" data-name="Path 1228" d="M358.6,441.8a.327.327,0,0,1-.011-.654l3.953-.143a.333.333,0,0,1,.339.315.327.327,0,0,1-.315.339l-3.954.143Zm7.907-.285a.327.327,0,0,1-.011-.654l3.954-.143a.327.327,0,0,1,.023.654l-3.953.143Zm7.907-.285a.327.327,0,0,1-.011-.654l3.953-.143a.327.327,0,0,1,.024.654l-3.953.143Zm7.907-.285a.327.327,0,0,1-.012-.654l3.953-.143a.33.33,0,0,1,.338.315.327.327,0,0,1-.315.338l-3.953.143Zm7.907-.285a.327.327,0,0,1-.011-.654l3.954-.143a.327.327,0,0,1,.024.654l-3.954.143Zm7.907-.285a.327.327,0,0,1-.012-.654l3.954-.143a.327.327,0,0,1,.024.654l-3.954.143Zm7.907-.285a.327.327,0,0,1-.011-.654l3.953-.143a.327.327,0,0,1,.024.654l-3.953.143Zm7.907-.285a.327.327,0,0,1-.011-.654l3.953-.143a.327.327,0,1,1,.024.654l-3.953.143Zm7.907-.285a.327.327,0,0,1-.011-.654l3.954-.143a.327.327,0,0,1,.024.654l-3.954.143Zm7.907-.285a.327.327,0,0,1-.011-.654l3.954-.143a.327.327,0,0,1,.024.654l-3.954.143Zm7.907-.285a.327.327,0,0,1-.011-.654l3.953-.143a.33.33,0,0,1,.338.315.326.326,0,0,1-.315.338l-3.953.143Zm7.907-.285a.327.327,0,0,1-.011-.654l3.954-.143a.327.327,0,0,1,.024.654l-3.954.143Zm7.907-.285a.327.327,0,0,1-.012-.654l3.954-.143a.327.327,0,0,1,.024.654l-3.953.143Zm7.907-.285a.327.327,0,0,1-.011-.654l3.954-.143a.327.327,0,0,1,.024.654l-3.954.143Zm7.907-.285a.327.327,0,0,1-.011-.654l3.953-.143a.327.327,0,0,1,.024.654l-3.953.143Zm7.907-.285a.327.327,0,0,1-.011-.654l3.954-.143a.327.327,0,0,1,.024.654l-3.954.143Zm7.907-.285a.327.327,0,0,1-.011-.654l3.953-.143a.327.327,0,0,1,.024.654l-3.954.143Zm7.907-.285a.327.327,0,0,1-.011-.654l3.954-.143a.33.33,0,0,1,.338.315.326.326,0,0,1-.315.338l-3.953.143Zm7.907-.285a.327.327,0,0,1-.011-.654l3.953-.143a.331.331,0,0,1,.338.315.327.327,0,0,1-.315.338l-3.953.143Z" transform="translate(-358.273 -435.877)" fill="#1a1a1a"/>
            </g>
          </g>
          <g id="Group_684" data-name="Group 684" transform="translate(156.147)">
            <g id="Group_683" data-name="Group 683">
              <path id="Path_1229" data-name="Path 1229" d="M818.111,435.949a.327.327,0,0,1-.012-.654l1.96-.071a.327.327,0,1,1,.024.654l-1.96.071Z" transform="translate(-817.784 -435.225)" fill="#1a1a1a"/>
            </g>
          </g>
        </g>
        <g id="Group_687" data-name="Group 687" transform="translate(6.721)">
          <g id="Group_686" data-name="Group 686">
            <path id="Path_1230" data-name="Path 1230" d="M445.8,219.52l-158.164,2.99,2.563,10.771L448.577,230.8Z" transform="translate(-287.471 -219.357)" fill="#1c0311"/>
            <path id="Path_1231" data-name="Path 1231" d="M289.861,233.108a.163.163,0,0,1-.159-.126l-2.564-10.77a.164.164,0,0,1,.156-.2l158.164-2.99h0a.164.164,0,0,1,.159.125l2.778,11.28a.163.163,0,0,1-.156.2l-158.379,2.481ZM287.5,222.333l2.486,10.445L448.032,230.3l-2.7-10.953Z" transform="translate(-287.134 -219.02)" fill="#1a1a1a"/>
          </g>
        </g>
        <g id="Group_689" data-name="Group 689" transform="translate(52.575 211.274)">
          <g id="Group_688" data-name="Group 688">
            <path id="Path_1232" data-name="Path 1232" d="M435.765,882.131l-7.378,8.343,164.034-17.5-7.378-6.744Z" transform="translate(-428.061 -865.905)" fill="#fff"/>
            <path id="Path_1233" data-name="Path 1233" d="M427.715,890.127a.327.327,0,0,1-.245-.544l7.377-8.342a.325.325,0,0,1,.211-.109l149.279-15.9a.327.327,0,0,1,.255.084l7.378,6.745a.327.327,0,0,1-.186.566l-164.034,17.5Zm7.539-8.358-6.736,7.616,162.475-17.331-6.733-6.156Z" transform="translate(-427.388 -865.231)" fill="#1a1a1a"/>
          </g>
        </g>
        <g id="Group_736" data-name="Group 736" transform="translate(66.462 162.975)">
          <g id="Group_691" data-name="Group 691" transform="translate(12.352 4.244)">
            <g id="Group_690" data-name="Group 690">
              <path id="Path_1234" data-name="Path 1234" d="M518.909,735.572l-9.259.837-1.007-4.061,9.237-.864Z" transform="translate(-508.316 -731.158)" fill="#fff"/>
              <path id="Path_1235" data-name="Path 1235" d="M508.976,736.063a.327.327,0,0,1-.317-.248l-1.007-4.061a.327.327,0,0,1,.287-.4l9.236-.864a.33.33,0,0,1,.348.246l1.029,4.087a.327.327,0,0,1-.288.405l-9.259.837Zm-.6-4.1.848,3.419,8.6-.777-.867-3.444Z" transform="translate(-507.643 -730.485)" fill="#1a1a1a"/>
            </g>
          </g>
          <g id="Group_693" data-name="Group 693" transform="translate(26.954 2.86)">
            <g id="Group_692" data-name="Group 692">
              <path id="Path_1236" data-name="Path 1236" d="M563.807,731.381l-9.461.856-1.042-4.1,9.438-.882Z" transform="translate(-552.977 -726.925)" fill="#fff"/>
              <path id="Path_1237" data-name="Path 1237" d="M553.673,731.891a.326.326,0,0,1-.316-.247l-1.042-4.1a.327.327,0,0,1,.286-.406l9.438-.882a.329.329,0,0,1,.347.244l1.066,4.129a.328.328,0,0,1-.287.407l-9.462.856Zm-.631-4.139.879,3.462,8.8-.8-.9-3.487Z" transform="translate(-552.304 -726.252)" fill="#1a1a1a"/>
            </g>
          </g>
          <g id="Group_695" data-name="Group 695" transform="translate(41.875 1.446)">
            <g id="Group_694" data-name="Group 694">
              <path id="Path_1238" data-name="Path 1238" d="M609.691,727.1l-9.671.874-1.079-4.145,9.647-.9Z" transform="translate(-598.615 -722.598)" fill="#fff"/>
              <path id="Path_1239" data-name="Path 1239" d="M599.347,727.626a.327.327,0,0,1-.316-.245l-1.079-4.145a.327.327,0,0,1,.286-.408l9.647-.9a.327.327,0,0,1,.346.242l1.1,4.172a.326.326,0,0,1-.287.409l-9.671.875Zm-.666-4.182.912,3.5,9.009-.815-.933-3.53Z" transform="translate(-597.942 -721.926)" fill="#1a1a1a"/>
            </g>
          </g>
          <g id="Group_697" data-name="Group 697" transform="translate(57.126)">
            <g id="Group_696" data-name="Group 696">
              <path id="Path_1240" data-name="Path 1240" d="M656.593,722.719l-9.887.894-1.117-4.188,9.862-.922Z" transform="translate(-645.263 -718.176)" fill="#fff"/>
              <path id="Path_1241" data-name="Path 1241" d="M646.033,723.267a.327.327,0,0,1-.315-.243l-1.116-4.188a.327.327,0,0,1,.285-.41l9.862-.922a.328.328,0,0,1,.346.24l1.141,4.217a.327.327,0,0,1-.286.411l-9.887.894Zm-.7-4.226.946,3.549,9.225-.834-.968-3.575Z" transform="translate(-644.59 -717.503)" fill="#1a1a1a"/>
            </g>
          </g>
          <g id="Group_699" data-name="Group 699" transform="translate(0 13.663)">
            <g id="Group_698" data-name="Group 698">
              <path id="Path_1242" data-name="Path 1242" d="M480.947,764.366l-9.106.767-.98-4.046,9.084-.794Z" transform="translate(-470.535 -759.967)" fill="#fff"/>
              <path id="Path_1243" data-name="Path 1243" d="M471.168,764.787a.327.327,0,0,1-.317-.25l-.98-4.046a.327.327,0,0,1,.289-.4l9.084-.793a.324.324,0,0,1,.346.247l1,4.072a.327.327,0,0,1-.29.4l-9.105.767Zm-.572-4.08.824,3.4,8.445-.712-.843-3.428Z" transform="translate(-469.862 -759.293)" fill="#1a1a1a"/>
            </g>
          </g>
          <g id="Group_701" data-name="Group 701" transform="translate(14.36 12.392)">
            <g id="Group_700" data-name="Group 700">
              <path id="Path_1244" data-name="Path 1244" d="M525.1,760.518l-9.3.784-1.014-4.087,9.281-.811Z" transform="translate(-514.457 -756.078)" fill="#fff"/>
              <path id="Path_1245" data-name="Path 1245" d="M515.124,760.956a.327.327,0,0,1-.317-.248l-1.014-4.087a.327.327,0,0,1,.289-.4l9.281-.81a.326.326,0,0,1,.346.246l1.036,4.114a.327.327,0,0,1-.29.405l-9.3.784Zm-.6-4.121.855,3.445,8.641-.728-.874-3.471Z" transform="translate(-513.784 -755.404)" fill="#1a1a1a"/>
            </g>
          </g>
          <g id="Group_703" data-name="Group 703" transform="translate(29.032 11.091)">
            <g id="Group_702" data-name="Group 702">
              <path id="Path_1246" data-name="Path 1246" d="M570.216,756.586l-9.507.8-1.049-4.129,9.484-.829Z" transform="translate(-559.333 -752.102)" fill="#fff"/>
              <path id="Path_1247" data-name="Path 1247" d="M560.036,757.04a.326.326,0,0,1-.317-.246l-1.049-4.13a.326.326,0,0,1,.288-.406l9.484-.828a.327.327,0,0,1,.345.244l1.072,4.157a.327.327,0,0,1-.289.407l-9.508.8Zm-.638-4.164.886,3.488,8.845-.746-.907-3.513Z" transform="translate(-558.66 -751.428)" fill="#1a1a1a"/>
            </g>
          </g>
          <g id="Group_705" data-name="Group 705" transform="translate(44.025 9.764)">
            <g id="Group_704" data-name="Group 704">
              <path id="Path_1248" data-name="Path 1248" d="M616.324,752.567l-9.718.819-1.086-4.173,9.694-.847Z" transform="translate(-605.193 -748.04)" fill="#fff"/>
              <path id="Path_1249" data-name="Path 1249" d="M605.932,753.04a.327.327,0,0,1-.316-.245l-1.086-4.172a.327.327,0,0,1,.288-.408l9.694-.847a.329.329,0,0,1,.345.242l1.11,4.2a.327.327,0,0,1-.289.409l-9.719.819Zm-.672-4.207.919,3.532,9.056-.763-.94-3.558Z" transform="translate(-604.52 -747.366)" fill="#1a1a1a"/>
            </g>
          </g>
          <g id="Group_707" data-name="Group 707" transform="translate(59.352 8.406)">
            <g id="Group_706" data-name="Group 706">
              <path id="Path_1250" data-name="Path 1250" d="M663.459,748.458l-9.936.837-1.124-4.217,9.911-.866Z" transform="translate(-652.071 -743.886)" fill="#fff"/>
              <path id="Path_1251" data-name="Path 1251" d="M652.849,748.95a.327.327,0,0,1-.315-.243l-1.124-4.217a.327.327,0,0,1,.287-.41l9.911-.866a.33.33,0,0,1,.344.24L663.1,747.7a.327.327,0,0,1-.288.411l-9.936.838Zm-.708-4.252.954,3.576,9.273-.782-.976-3.6Z" transform="translate(-651.398 -743.213)" fill="#1a1a1a"/>
            </g>
          </g>
          <g id="Group_709" data-name="Group 709" transform="translate(1.953 21.78)">
            <g id="Group_708" data-name="Group 708">
              <path id="Path_1252" data-name="Path 1252" d="M486.97,789.22l-9.149.715-.986-4.072,9.127-.741Z" transform="translate(-476.508 -784.795)" fill="#fff"/>
              <path id="Path_1253" data-name="Path 1253" d="M477.148,789.589a.327.327,0,0,1-.317-.25l-.986-4.072a.327.327,0,0,1,.291-.4l9.127-.741a.327.327,0,0,1,.344.248l1.008,4.1a.326.326,0,0,1-.292.4l-9.148.715Zm-.578-4.1.831,3.429,8.487-.663-.849-3.454Z" transform="translate(-475.835 -784.122)" fill="#1a1a1a"/>
            </g>
          </g>
          <g id="Group_711" data-name="Group 711" transform="translate(16.381 20.592)">
            <g id="Group_710" data-name="Group 710">
              <path id="Path_1254" data-name="Path 1254" d="M531.334,785.63l-9.348.73-1.021-4.114,9.325-.757Z" transform="translate(-520.638 -781.161)" fill="#fff"/>
              <path id="Path_1255" data-name="Path 1255" d="M521.312,786.013a.327.327,0,0,1-.317-.248l-1.021-4.114a.328.328,0,0,1,.291-.405l9.326-.758a.33.33,0,0,1,.343.246l1.043,4.141a.327.327,0,0,1-.292.406l-9.348.73Zm-.61-4.146.861,3.472,8.686-.678-.881-3.5Z" transform="translate(-519.965 -780.488)" fill="#1a1a1a"/>
            </g>
          </g>
          <g id="Group_713" data-name="Group 713" transform="translate(31.123 19.379)">
            <g id="Group_712" data-name="Group 712">
              <path id="Path_1256" data-name="Path 1256" d="M576.667,781.96l-9.554.746-1.056-4.157,9.53-.774Z" transform="translate(-565.73 -777.449)" fill="#fff"/>
              <path id="Path_1257" data-name="Path 1257" d="M566.44,782.361a.327.327,0,0,1-.316-.247l-1.056-4.157a.327.327,0,0,1,.29-.406l9.53-.774a.333.333,0,0,1,.343.244l1.08,4.185a.327.327,0,0,1-.291.408l-9.554.746Zm-.643-4.189.893,3.515,8.891-.694-.914-3.541Z" transform="translate(-565.057 -776.776)" fill="#1a1a1a"/>
            </g>
          </g>
          <g id="Group_715" data-name="Group 715" transform="translate(46.19 18.138)">
            <g id="Group_714" data-name="Group 714">
              <path id="Path_1258" data-name="Path 1258" d="M623,778.209l-9.766.763-1.093-4.2,9.742-.791Z" transform="translate(-611.815 -773.653)" fill="#fff"/>
              <path id="Path_1259" data-name="Path 1259" d="M612.562,778.626a.327.327,0,0,1-.316-.245l-1.093-4.2a.327.327,0,0,1,.29-.408l9.742-.791a.33.33,0,0,1,.343.242l1.117,4.229a.327.327,0,0,1-.291.41l-9.766.763Zm-.678-4.234.926,3.559,9.1-.711-.947-3.585Z" transform="translate(-611.142 -772.981)" fill="#1a1a1a"/>
            </g>
          </g>
          <g id="Group_717" data-name="Group 717" transform="translate(61.593 16.869)">
            <g id="Group_716" data-name="Group 716">
              <path id="Path_1260" data-name="Path 1260" d="M670.371,774.373l-9.986.78-1.132-4.245,9.961-.809Z" transform="translate(-658.925 -769.773)" fill="#fff"/>
              <path id="Path_1261" data-name="Path 1261" d="M659.71,774.808a.327.327,0,0,1-.315-.243l-1.132-4.245a.327.327,0,0,1,.289-.41l9.961-.809a.329.329,0,0,1,.342.241l1.157,4.274a.327.327,0,0,1-.29.412l-9.986.78ZM659,770.53l.961,3.6,9.322-.729-.983-3.631Z" transform="translate(-658.252 -769.1)" fill="#1a1a1a"/>
            </g>
          </g>
          <g id="Group_719" data-name="Group 719" transform="translate(3.919 29.951)">
            <g id="Group_718" data-name="Group 718">
              <path id="Path_1262" data-name="Path 1262" d="M493.032,814.237l-9.192.661-.992-4.1,9.17-.688Z" transform="translate(-482.521 -809.785)" fill="#fff"/>
              <path id="Path_1263" data-name="Path 1263" d="M483.167,814.552a.327.327,0,0,1-.317-.25l-.992-4.1a.327.327,0,0,1,.293-.4l9.17-.688a.326.326,0,0,1,.342.248l1.015,4.125a.327.327,0,0,1-.294.4l-9.193.661Zm-.584-4.128.837,3.455,8.53-.613-.856-3.48Z" transform="translate(-481.848 -809.111)" fill="#1a1a1a"/>
            </g>
          </g>
          <g id="Group_721" data-name="Group 721" transform="translate(18.415 28.848)">
            <g id="Group_720" data-name="Group 720">
              <path id="Path_1264" data-name="Path 1264" d="M537.608,810.907l-9.393.676-1.027-4.141,9.37-.7Z" transform="translate(-526.861 -806.411)" fill="#fff"/>
              <path id="Path_1265" data-name="Path 1265" d="M527.542,811.237a.326.326,0,0,1-.317-.248l-1.027-4.141a.327.327,0,0,1,.293-.405l9.37-.7a.327.327,0,0,1,.342.246l1.05,4.169a.327.327,0,0,1-.294.406l-9.393.675Zm-.616-4.171.867,3.5,8.73-.628-.888-3.524Z" transform="translate(-526.188 -805.739)" fill="#1a1a1a"/>
            </g>
          </g>
          <g id="Group_723" data-name="Group 723" transform="translate(33.229 27.721)">
            <g id="Group_722" data-name="Group 722">
              <path id="Path_1266" data-name="Path 1266" d="M583.161,807.5l-9.6.691-1.063-4.185,9.577-.719Z" transform="translate(-572.17 -802.964)" fill="#fff"/>
              <path id="Path_1267" data-name="Path 1267" d="M572.887,807.848a.327.327,0,0,1-.316-.247l-1.063-4.185a.327.327,0,0,1,.292-.406l9.577-.719a.327.327,0,0,1,.341.244l1.087,4.212a.327.327,0,0,1-.293.408l-9.6.69Zm-.65-4.215.9,3.542,8.937-.643-.921-3.568Z" transform="translate(-571.498 -802.291)" fill="#1a1a1a"/>
            </g>
          </g>
          <g id="Group_725" data-name="Group 725" transform="translate(48.37 26.568)">
            <g id="Group_724" data-name="Group 724">
              <path id="Path_1268" data-name="Path 1268" d="M629.724,804.024l-9.815.706-1.1-4.229,9.791-.735Z" transform="translate(-618.481 -799.439)" fill="#fff"/>
              <path id="Path_1269" data-name="Path 1269" d="M619.235,804.384a.327.327,0,0,1-.316-.245l-1.1-4.229a.327.327,0,0,1,.292-.408l9.791-.735a.328.328,0,0,1,.341.242l1.125,4.258a.327.327,0,0,1-.293.41l-9.815.706Zm-.685-4.259.933,3.587,9.15-.658-.955-3.613Z" transform="translate(-617.808 -798.766)" fill="#1a1a1a"/>
            </g>
          </g>
          <g id="Group_727" data-name="Group 727" transform="translate(63.849 25.39)">
            <g id="Group_726" data-name="Group 726">
              <path id="Path_1270" data-name="Path 1270" d="M677.33,800.466l-10.037.722-1.139-4.274,10.011-.751Z" transform="translate(-665.827 -795.836)" fill="#fff"/>
              <path id="Path_1271" data-name="Path 1271" d="M666.62,800.842a.327.327,0,0,1-.315-.243l-1.139-4.274a.327.327,0,0,1,.291-.41l10.012-.751a.328.328,0,0,1,.34.24l1.165,4.3a.326.326,0,0,1-.292.412l-10.037.722Zm-.722-4.3.968,3.632,9.371-.674-.99-3.66Z" transform="translate(-665.154 -795.163)" fill="#1a1a1a"/>
            </g>
          </g>
          <g id="Group_729" data-name="Group 729" transform="translate(5.897 38.175)">
            <g id="Group_728" data-name="Group 728">
              <path id="Path_1272" data-name="Path 1272" d="M499.134,839.419l-9.236.607-1-4.125,9.214-.634Z" transform="translate(-488.572 -834.94)" fill="#fff"/>
              <path id="Path_1273" data-name="Path 1273" d="M489.224,839.681a.327.327,0,0,1-.317-.25l-1-4.125a.327.327,0,0,1,.3-.4l9.214-.635a.339.339,0,0,1,.34.248l1.021,4.152a.327.327,0,0,1-.3.4l-9.236.607Zm-.589-4.153.843,3.482,8.573-.564-.862-3.507Z" transform="translate(-487.899 -834.267)" fill="#1a1a1a"/>
            </g>
          </g>
          <g id="Group_731" data-name="Group 731" transform="translate(20.463 37.158)">
            <g id="Group_730" data-name="Group 730">
              <path id="Path_1274" data-name="Path 1274" d="M543.924,836.352l-9.439.62-1.034-4.169,9.416-.648Z" transform="translate(-533.124 -831.83)" fill="#fff"/>
              <path id="Path_1275" data-name="Path 1275" d="M533.812,836.628a.327.327,0,0,1-.317-.248l-1.034-4.169a.327.327,0,0,1,.295-.405l9.416-.648a.338.338,0,0,1,.339.246l1.057,4.2a.327.327,0,0,1-.3.406l-9.439.62Zm-.622-4.2.874,3.525,8.774-.577-.895-3.551Z" transform="translate(-532.452 -831.158)" fill="#1a1a1a"/>
            </g>
          </g>
          <g id="Group_733" data-name="Group 733" transform="translate(35.349 36.119)">
            <g id="Group_732" data-name="Group 732">
              <path id="Path_1276" data-name="Path 1276" d="M589.7,833.219l-9.648.634-1.07-4.213,9.624-.663Z" transform="translate(-578.654 -828.651)" fill="#fff"/>
              <path id="Path_1277" data-name="Path 1277" d="M579.378,833.507a.326.326,0,0,1-.316-.246l-1.07-4.212a.327.327,0,0,1,.294-.407l9.624-.663a.337.337,0,0,1,.339.245l1.094,4.241a.327.327,0,0,1-.3.408l-9.648.634Zm-.656-4.24.907,3.569,8.983-.591-.928-3.6Z" transform="translate(-577.981 -827.978)" fill="#1a1a1a"/>
            </g>
          </g>
          <g id="Group_735" data-name="Group 735" transform="translate(50.564 35.057)">
            <g id="Group_734" data-name="Group 734">
              <path id="Path_1278" data-name="Path 1278" d="M636.491,830.015l-9.864.648-1.108-4.258,9.839-.677Z" transform="translate(-625.192 -825.401)" fill="#fff"/>
              <path id="Path_1279" data-name="Path 1279" d="M625.954,830.318a.327.327,0,0,1-.316-.245l-1.108-4.258a.327.327,0,0,1,.294-.409l9.839-.677a.338.338,0,0,1,.338.243l1.133,4.287a.327.327,0,0,1-.295.41l-9.864.648Zm-.692-4.285.941,3.614,9.2-.6-.962-3.642Z" transform="translate(-624.519 -824.729)" fill="#1a1a1a"/>
            </g>
          </g>
        </g>
        <g id="Group_783" data-name="Group 783" transform="translate(26.05 29.934)">
          <g id="Group_738" data-name="Group 738" transform="translate(11.422 0.995)">
            <g id="Group_737" data-name="Group 737">
              <path id="Path_1280" data-name="Path 1280" d="M391.073,317.677l-8.28.18-.711-3.246,8.261-.2Z" transform="translate(-381.791 -314.152)" fill="#fff"/>
              <path id="Path_1281" data-name="Path 1281" d="M382.178,317.584a.287.287,0,0,1-.271-.212l-.711-3.246a.234.234,0,0,1,.058-.208.3.3,0,0,1,.216-.095l8.261-.2a.293.293,0,0,1,.3.211l.73,3.268a.233.233,0,0,1-.057.209.3.3,0,0,1-.217.1l-8.28.18Zm-.345-3.254.6,2.734,7.689-.168-.615-2.754Z" transform="translate(-381.191 -313.621)" fill="#1a1a1a"/>
            </g>
          </g>
          <g id="Group_740" data-name="Group 740" transform="translate(24.482 0.67)">
            <g id="Group_739" data-name="Group 739">
              <path id="Path_1282" data-name="Path 1282" d="M431.229,316.72l-8.461.184-.741-3.281,8.442-.207Z" transform="translate(-421.736 -313.159)" fill="#fff"/>
              <path id="Path_1283" data-name="Path 1283" d="M422.153,316.631a.288.288,0,0,1-.27-.21l-.741-3.281a.234.234,0,0,1,.057-.209.3.3,0,0,1,.217-.1l8.442-.207a.293.293,0,0,1,.3.21l.76,3.3a.233.233,0,0,1-.056.21.3.3,0,0,1-.218.1l-8.461.184Zm-.373-3.289.625,2.768,7.87-.171-.642-2.789Z" transform="translate(-421.137 -312.629)" fill="#1a1a1a"/>
            </g>
          </g>
          <g id="Group_742" data-name="Group 742" transform="translate(37.827 0.339)">
            <g id="Group_741" data-name="Group 741">
              <path id="Path_1284" data-name="Path 1284" d="M472.267,315.742l-8.648.189-.771-3.316,8.628-.211Z" transform="translate(-462.556 -312.145)" fill="#fff"/>
              <path id="Path_1285" data-name="Path 1285" d="M463,315.657a.287.287,0,0,1-.27-.209l-.771-3.316a.232.232,0,0,1,.056-.21.3.3,0,0,1,.217-.1l8.628-.211a.292.292,0,0,1,.3.208l.791,3.339a.233.233,0,0,1-.055.211.3.3,0,0,1-.219.1l-8.648.188Zm-.4-3.324.652,2.8,8.056-.176-.669-2.825Z" transform="translate(-461.955 -311.615)" fill="#1a1a1a"/>
            </g>
          </g>
          <g id="Group_744" data-name="Group 744" transform="translate(51.468)">
            <g id="Group_743" data-name="Group 743">
              <path id="Path_1286" data-name="Path 1286" d="M514.214,314.742l-8.841.193-.8-3.352,8.821-.216Z" transform="translate(-504.279 -311.109)" fill="#fff"/>
              <path id="Path_1287" data-name="Path 1287" d="M504.758,314.661a.288.288,0,0,1-.27-.207l-.8-3.352a.233.233,0,0,1,.055-.211.3.3,0,0,1,.218-.1l8.821-.216a.293.293,0,0,1,.3.207l.824,3.375a.232.232,0,0,1-.054.212.3.3,0,0,1-.219.1l-8.841.193Zm-.431-3.36.68,2.84,8.249-.18-.7-2.862Z" transform="translate(-503.679 -310.578)" fill="#1a1a1a"/>
            </g>
          </g>
          <g id="Group_746" data-name="Group 746" transform="translate(0 7.758)">
            <g id="Group_745" data-name="Group 745">
              <path id="Path_1288" data-name="Path 1288" d="M355.975,338.35l-8.14.134-.687-3.233,8.122-.155Z" transform="translate(-346.856 -334.837)" fill="#fff"/>
              <path id="Path_1289" data-name="Path 1289" d="M347.22,338.21a.287.287,0,0,1-.271-.213l-.688-3.233a.233.233,0,0,1,.059-.208.3.3,0,0,1,.217-.094l8.123-.155a.288.288,0,0,1,.3.212l.705,3.254a.234.234,0,0,1-.058.209.3.3,0,0,1-.218.094l-8.141.134Zm-.323-3.239.579,2.72,7.549-.124-.594-2.74Z" transform="translate(-346.256 -334.306)" fill="#1a1a1a"/>
            </g>
          </g>
          <g id="Group_748" data-name="Group 748" transform="translate(12.84 7.509)">
            <g id="Group_747" data-name="Group 747">
              <path id="Path_1290" data-name="Path 1290" d="M395.452,337.624l-8.317.136-.716-3.267,8.3-.159Z" transform="translate(-386.128 -334.077)" fill="#fff"/>
              <path id="Path_1291" data-name="Path 1291" d="M386.52,337.487a.288.288,0,0,1-.271-.212l-.716-3.267a.234.234,0,0,1,.058-.209.3.3,0,0,1,.218-.095l8.3-.158a.289.289,0,0,1,.3.211l.735,3.289a.235.235,0,0,1-.058.21.3.3,0,0,1-.219.094l-8.317.136Zm-.35-3.273.6,2.754,7.725-.127-.62-2.775Z" transform="translate(-385.527 -333.547)" fill="#1a1a1a"/>
            </g>
          </g>
          <g id="Group_750" data-name="Group 750" transform="translate(25.958 7.255)">
            <g id="Group_749" data-name="Group 749">
              <path id="Path_1292" data-name="Path 1292" d="M435.789,336.882l-8.5.139-.746-3.3,8.48-.162Z" transform="translate(-426.253 -333.299)" fill="#fff"/>
              <path id="Path_1293" data-name="Path 1293" d="M426.675,336.747a.287.287,0,0,1-.27-.21l-.745-3.3a.232.232,0,0,1,.057-.21.3.3,0,0,1,.218-.1l8.48-.162a.29.29,0,0,1,.3.21l.765,3.325a.234.234,0,0,1-.057.211.3.3,0,0,1-.219.095l-8.5.14Zm-.377-3.308.63,2.79,7.908-.13-.647-2.81Z" transform="translate(-425.653 -332.768)" fill="#1a1a1a"/>
            </g>
          </g>
          <g id="Group_752" data-name="Group 752" transform="translate(39.365 6.995)">
            <g id="Group_751" data-name="Group 751">
              <path id="Path_1294" data-name="Path 1294" d="M477.014,336.123l-8.688.143-.776-3.338,8.668-.166Z" transform="translate(-467.258 -332.504)" fill="#fff"/>
              <path id="Path_1295" data-name="Path 1295" d="M467.711,335.992a.288.288,0,0,1-.27-.209l-.776-3.338a.233.233,0,0,1,.056-.21.3.3,0,0,1,.219-.1l8.668-.166a.293.293,0,0,1,.3.208l.8,3.361a.235.235,0,0,1-.056.211.3.3,0,0,1-.22.1l-8.688.143Zm-.406-3.344.657,2.825,8.1-.133-.674-2.847Z" transform="translate(-466.659 -331.974)" fill="#1a1a1a"/>
            </g>
          </g>
          <g id="Group_754" data-name="Group 754" transform="translate(53.069 6.729)">
            <g id="Group_753" data-name="Group 753">
              <path id="Path_1296" data-name="Path 1296" d="M519.156,335.348l-8.883.146-.808-3.375,8.862-.169Z" transform="translate(-509.174 -331.691)" fill="#fff"/>
              <path id="Path_1297" data-name="Path 1297" d="M509.658,335.22a.287.287,0,0,1-.27-.207l-.809-3.375a.234.234,0,0,1,.056-.212.3.3,0,0,1,.219-.1l8.862-.169a.294.294,0,0,1,.3.207l.829,3.4a.233.233,0,0,1-.055.213.3.3,0,0,1-.22.1l-8.883.146Zm-.436-3.381.686,2.862,8.29-.136-.7-2.885Z" transform="translate(-508.574 -331.161)" fill="#1a1a1a"/>
            </g>
          </g>
          <g id="Group_756" data-name="Group 756" transform="translate(1.37 14.246)">
            <g id="Group_755" data-name="Group 755">
              <path id="Path_1298" data-name="Path 1298" d="M360.207,358.215l-8.176.09-.692-3.254,8.158-.112Z" transform="translate(-351.047 -354.681)" fill="#fff"/>
              <path id="Path_1299" data-name="Path 1299" d="M351.416,358.031a.287.287,0,0,1-.271-.213l-.692-3.254a.233.233,0,0,1,.059-.208.3.3,0,0,1,.218-.094l8.158-.112a.291.291,0,0,1,.295.213l.71,3.276a.233.233,0,0,1-.059.209.3.3,0,0,1-.219.094l-8.176.09Zm-.327-3.258.583,2.74,7.585-.083-.6-2.761Z" transform="translate(-350.447 -354.15)" fill="#1a1a1a"/>
            </g>
          </g>
          <g id="Group_758" data-name="Group 758" transform="translate(14.267 14.066)">
            <g id="Group_757" data-name="Group 757">
              <path id="Path_1300" data-name="Path 1300" d="M399.86,357.7l-8.354.092-.721-3.289,8.336-.114Z" transform="translate(-390.493 -354.133)" fill="#fff"/>
              <path id="Path_1301" data-name="Path 1301" d="M390.891,357.52a.287.287,0,0,1-.271-.212l-.721-3.289a.233.233,0,0,1,.059-.21.3.3,0,0,1,.219-.094l8.336-.114a.294.294,0,0,1,.295.211l.74,3.312a.234.234,0,0,1-.058.21.3.3,0,0,1-.22.094l-8.354.092Zm-.354-3.293.608,2.775,7.762-.085-.624-2.8Z" transform="translate(-389.893 -353.602)" fill="#1a1a1a"/>
            </g>
          </g>
          <g id="Group_760" data-name="Group 760" transform="translate(27.445 13.883)">
            <g id="Group_759" data-name="Group 759">
              <path id="Path_1302" data-name="Path 1302" d="M440.379,357.178l-8.538.094-.751-3.324,8.519-.117Z" transform="translate(-430.799 -353.573)" fill="#fff"/>
              <path id="Path_1303" data-name="Path 1303" d="M431.226,357a.288.288,0,0,1-.27-.21l-.75-3.324a.233.233,0,0,1,.057-.21.3.3,0,0,1,.219-.094l8.519-.117a.3.3,0,0,1,.294.21l.77,3.347a.234.234,0,0,1-.057.211.3.3,0,0,1-.22.094l-8.538.094Zm-.382-3.329.635,2.811,7.946-.087-.652-2.832Z" transform="translate(-430.199 -353.042)" fill="#1a1a1a"/>
            </g>
          </g>
          <g id="Group_762" data-name="Group 762" transform="translate(40.912 13.696)">
            <g id="Group_761" data-name="Group 761">
              <path id="Path_1304" data-name="Path 1304" d="M481.793,356.642l-8.728.1-.782-3.361,8.708-.119Z" transform="translate(-471.992 -353)" fill="#fff"/>
              <path id="Path_1305" data-name="Path 1305" d="M472.45,356.465a.288.288,0,0,1-.27-.209L471.4,352.9a.232.232,0,0,1,.057-.211.3.3,0,0,1,.22-.1l8.708-.119a.293.293,0,0,1,.294.208l.8,3.384a.233.233,0,0,1-.057.212.3.3,0,0,1-.221.1l-8.728.1Zm-.411-3.365.662,2.847,8.135-.09-.679-2.869Z" transform="translate(-471.392 -352.47)" fill="#1a1a1a"/>
            </g>
          </g>
          <g id="Group_764" data-name="Group 764" transform="translate(54.68 13.505)">
            <g id="Group_763" data-name="Group 763">
              <path id="Path_1306" data-name="Path 1306" d="M524.132,356.094l-8.925.1-.814-3.4,8.9-.122Z" transform="translate(-514.102 -352.415)" fill="#fff"/>
              <path id="Path_1307" data-name="Path 1307" d="M514.592,355.919a.287.287,0,0,1-.27-.207l-.814-3.4a.233.233,0,0,1,.056-.212.3.3,0,0,1,.221-.1l8.9-.122a.293.293,0,0,1,.294.207l.835,3.422a.234.234,0,0,1-.056.213.3.3,0,0,1-.221.1l-8.925.1Zm-.441-3.4.691,2.885,8.331-.092-.709-2.907Z" transform="translate(-513.502 -351.884)" fill="#1a1a1a"/>
            </g>
          </g>
          <g id="Group_766" data-name="Group 766" transform="translate(2.75 20.776)">
            <g id="Group_765" data-name="Group 765">
              <path id="Path_1308" data-name="Path 1308" d="M364.467,378.21l-8.213.046-.7-3.275,8.194-.068Z" transform="translate(-355.267 -374.655)" fill="#fff"/>
              <path id="Path_1309" data-name="Path 1309" d="M355.64,377.982a.286.286,0,0,1-.271-.213l-.7-3.275a.233.233,0,0,1,.06-.209.3.3,0,0,1,.219-.093l8.194-.068a.289.289,0,0,1,.293.213l.715,3.3a.232.232,0,0,1-.06.21.3.3,0,0,1-.221.093l-8.213.045Zm-.331-3.277.587,2.761,7.621-.042-.6-2.782Z" transform="translate(-354.667 -374.125)" fill="#1a1a1a"/>
            </g>
          </g>
          <g id="Group_768" data-name="Group 768" transform="translate(15.704 20.667)">
            <g id="Group_767" data-name="Group 767">
              <path id="Path_1310" data-name="Path 1310" d="M404.3,377.913l-8.392.047-.725-3.31,8.373-.069Z" transform="translate(-394.888 -374.322)" fill="#fff"/>
              <path id="Path_1311" data-name="Path 1311" d="M395.29,377.687a.288.288,0,0,1-.271-.212l-.726-3.31a.235.235,0,0,1,.059-.21.3.3,0,0,1,.22-.094l8.373-.069a.29.29,0,0,1,.293.211l.744,3.333a.234.234,0,0,1-.059.211.3.3,0,0,1-.221.093l-8.392.046Zm-.358-3.313.613,2.8,7.8-.043-.63-2.818Z" transform="translate(-394.288 -373.792)" fill="#1a1a1a"/>
            </g>
          </g>
          <g id="Group_770" data-name="Group 770" transform="translate(28.941 20.556)">
            <g id="Group_769" data-name="Group 769">
              <path id="Path_1312" data-name="Path 1312" d="M445,377.61l-8.577.048-.756-3.346,8.558-.071Z" transform="translate(-435.375 -373.982)" fill="#fff"/>
              <path id="Path_1313" data-name="Path 1313" d="M435.807,377.384a.288.288,0,0,1-.27-.21l-.756-3.347a.233.233,0,0,1,.058-.211.3.3,0,0,1,.22-.094l8.558-.071a.29.29,0,0,1,.293.21l.775,3.37a.234.234,0,0,1-.058.212.3.3,0,0,1-.222.094l-8.577.047Zm-.386-3.349.639,2.832,7.985-.044-.657-2.855Z" transform="translate(-434.775 -373.452)" fill="#1a1a1a"/>
            </g>
          </g>
          <g id="Group_772" data-name="Group 772" transform="translate(42.47 20.443)">
            <g id="Group_771" data-name="Group 771">
              <path id="Path_1314" data-name="Path 1314" d="M486.6,377.3l-8.769.049-.787-3.383,8.749-.072Z" transform="translate(-476.757 -373.635)" fill="#fff"/>
              <path id="Path_1315" data-name="Path 1315" d="M477.221,377.075a.287.287,0,0,1-.27-.209l-.787-3.384a.234.234,0,0,1,.057-.212.3.3,0,0,1,.221-.094l8.749-.072a.292.292,0,0,1,.292.208l.807,3.407a.233.233,0,0,1-.057.213.3.3,0,0,1-.222.094l-8.769.049Zm-.416-3.386.667,2.87,8.175-.045-.685-2.891Z" transform="translate(-476.158 -373.105)" fill="#1a1a1a"/>
            </g>
          </g>
          <g id="Group_774" data-name="Group 774" transform="translate(56.302 20.326)">
            <g id="Group_773" data-name="Group 773">
              <path id="Path_1316" data-name="Path 1316" d="M529.142,376.983l-8.967.05-.819-3.421,8.946-.074Z" transform="translate(-519.064 -373.28)" fill="#fff"/>
              <path id="Path_1317" data-name="Path 1317" d="M519.56,376.759a.288.288,0,0,1-.27-.207l-.819-3.421a.234.234,0,0,1,.056-.213.3.3,0,0,1,.222-.095l8.946-.074a.293.293,0,0,1,.292.207l.84,3.445a.233.233,0,0,1-.056.214.3.3,0,0,1-.223.095l-8.967.05Zm-.446-3.423.7,2.907,8.373-.046-.715-2.93Z" transform="translate(-518.465 -372.749)" fill="#1a1a1a"/>
            </g>
          </g>
          <g id="Group_776" data-name="Group 776" transform="translate(4.138 27.349)">
            <g id="Group_775" data-name="Group 775">
              <path id="Path_1318" data-name="Path 1318" d="M368.755,398.337h-8.249l-.7-3.3,8.231-.023Z" transform="translate(-359.513 -394.76)" fill="#fff"/>
              <path id="Path_1319" data-name="Path 1319" d="M359.891,398.064a.287.287,0,0,1-.271-.213l-.7-3.3a.234.234,0,0,1,.06-.21.3.3,0,0,1,.221-.092l8.231-.024a.3.3,0,0,1,.291.213l.719,3.319a.232.232,0,0,1-.06.211.3.3,0,0,1-.222.092h-8.269Zm-.335-3.3.591,2.782H367.8l-.607-2.8Z" transform="translate(-358.913 -394.229)" fill="#1a1a1a"/>
            </g>
          </g>
          <g id="Group_778" data-name="Group 778" transform="translate(17.15 27.312)">
            <g id="Group_777" data-name="Group 777">
              <path id="Path_1320" data-name="Path 1320" d="M408.763,398.259h-8.43l-.73-3.332,8.411-.024Z" transform="translate(-399.311 -394.646)" fill="#fff"/>
              <path id="Path_1321" data-name="Path 1321" d="M399.718,397.986a.287.287,0,0,1-.271-.212l-.73-3.333a.233.233,0,0,1,.059-.21.3.3,0,0,1,.222-.093l8.411-.024a.3.3,0,0,1,.291.211l.75,3.356a.234.234,0,0,1-.06.212.3.3,0,0,1-.222.093h-8.449Zm-.363-3.333.617,2.818h7.837l-.634-2.84Z" transform="translate(-398.712 -394.115)" fill="#1a1a1a"/>
            </g>
          </g>
          <g id="Group_780" data-name="Group 780" transform="translate(30.447 27.274)">
            <g id="Group_779" data-name="Group 779">
              <path id="Path_1322" data-name="Path 1322" d="M449.651,398.179h-8.617l-.761-3.369,8.6-.024Z" transform="translate(-439.982 -394.529)" fill="#fff"/>
              <path id="Path_1323" data-name="Path 1323" d="M440.419,397.906a.287.287,0,0,1-.27-.21l-.76-3.369a.233.233,0,0,1,.059-.211.3.3,0,0,1,.222-.094l8.6-.025a.3.3,0,0,1,.291.21l.78,3.393a.234.234,0,0,1-.058.212.3.3,0,0,1-.223.094h-8.637Zm-.391-3.369.644,2.854H448.7l-.662-2.876Z" transform="translate(-439.383 -393.998)" fill="#1a1a1a"/>
            </g>
          </g>
          <g id="Group_782" data-name="Group 782" transform="translate(44.039 27.235)">
            <g id="Group_781" data-name="Group 781">
              <path id="Path_1324" data-name="Path 1324" d="M491.449,398.1h-8.81l-.792-3.406,8.789-.025Z" transform="translate(-481.555 -394.41)" fill="#fff"/>
              <path id="Path_1325" data-name="Path 1325" d="M482.023,397.825a.288.288,0,0,1-.27-.209l-.792-3.406a.234.234,0,0,1,.058-.212.3.3,0,0,1,.223-.094l8.79-.025a.3.3,0,0,1,.29.208l.813,3.43a.234.234,0,0,1-.058.214.3.3,0,0,1-.223.094h-8.829Zm-.421-3.407.673,2.892h8.215l-.69-2.914Z" transform="translate(-480.954 -393.879)" fill="#1a1a1a"/>
            </g>
          </g>
        </g>
        <g id="Group_785" data-name="Group 785" transform="translate(50.212 101.804)">
          <g id="Group_784" data-name="Group 784">
            <path id="Path_1326" data-name="Path 1326" d="M421.16,535.154l7.871,37.181,2.251,10.631,67.614-5.841L487.671,531.4Z" transform="translate(-420.833 -531.075)" fill="#fff"/>
            <path id="Path_1327" data-name="Path 1327" d="M430.607,582.62a.327.327,0,0,1-.32-.259l-10.121-47.812a.328.328,0,0,1,.3-.394l66.51-3.752a.329.329,0,0,1,.336.249l11.225,45.724a.327.327,0,0,1-.289.4l-67.614,5.841Zm-9.723-47.835,9.983,47.157,66.946-5.783L486.744,531.07Z" transform="translate(-420.159 -530.401)" fill="#1a1a1a"/>
          </g>
        </g>
        <g id="Group_787" data-name="Group 787" transform="translate(58.246 120.913)">
          <g id="Group_786" data-name="Group 786">
            <path id="Path_1328" data-name="Path 1328" d="M466.7,596.174l-21.461,15.151,2.251,10.631,67.614-5.841-3.781-15.4s-17.294-12.7-20.48-11.27S478,602.193,478,602.193,469.87,596.078,466.7,596.174Z" transform="translate(-445.07 -589.174)" fill="#1c0311"/>
            <path id="Path_1329" data-name="Path 1329" d="M447.148,621.8a.164.164,0,0,1-.16-.13l-2.251-10.631a.164.164,0,0,1,.066-.167l21.461-15.151a.168.168,0,0,1,.09-.03h.079c3.063,0,10.144,5.173,11.2,5.962,1.088-1.269,9.752-11.311,12.8-12.677,3.241-1.453,19.935,10.767,20.644,11.287a.163.163,0,0,1,.062.093l3.781,15.4a.164.164,0,0,1-.144.2l-67.614,5.84Zm-2.069-10.723,2.2,10.385,67.28-5.812-3.721-15.159c-5.971-4.38-17.826-12.313-20.268-11.217-3.116,1.4-12.685,12.595-12.781,12.708a.163.163,0,0,1-.223.024c-.08-.06-8-5.988-11.128-5.988h-.024Z" transform="translate(-444.733 -588.851)" fill="#1a1a1a"/>
          </g>
        </g>
        <g id="Group_789" data-name="Group 789" transform="translate(73.675 110.54)">
          <g id="Group_788" data-name="Group 788">
            <ellipse id="Ellipse_154" data-name="Ellipse 154" cx="5.597" cy="4.763" rx="5.597" ry="4.763" transform="translate(0.163 0.164)" fill="#1c0311"/>
            <path id="Path_1330" data-name="Path 1330" d="M497.683,566.977c-3.176,0-5.76-2.21-5.76-4.926s2.584-4.927,5.76-4.927,5.76,2.21,5.76,4.927S500.859,566.977,497.683,566.977Zm0-9.526c-3,0-5.433,2.063-5.433,4.6s2.437,4.6,5.433,4.6,5.433-2.063,5.433-4.6S500.678,557.451,497.683,557.451Z" transform="translate(-491.923 -557.124)" fill="#1a1a1a"/>
          </g>
        </g>
        <g id="Group_791" data-name="Group 791" transform="translate(42.414 82.37)">
          <g id="Group_790" data-name="Group 790">
            <ellipse id="Ellipse_155" data-name="Ellipse 155" cx="7.801" cy="6.631" rx="7.801" ry="6.631" transform="translate(0.327 0.327)" fill="#f16552"/>
            <path id="Path_1331" data-name="Path 1331" d="M404.436,484.877c-4.482,0-8.128-3.121-8.128-6.958s3.646-6.957,8.128-6.957,8.128,3.121,8.128,6.957S408.918,484.877,404.436,484.877Zm0-13.261c-4.121,0-7.474,2.828-7.474,6.3s3.353,6.3,7.474,6.3,7.474-2.828,7.474-6.3S408.557,471.616,404.436,471.616Z" transform="translate(-396.308 -470.962)" fill="#f16552"/>
          </g>
        </g>
        <g id="Group_793" data-name="Group 793" transform="translate(60.614 161.142)">
          <g id="Group_792" data-name="Group 792">
            <ellipse id="Ellipse_156" data-name="Ellipse 156" cx="7.801" cy="6.631" rx="7.801" ry="6.631" transform="translate(0.327 0.327)" fill="#f16552"/>
            <path id="Path_1332" data-name="Path 1332" d="M460.1,725.81c-4.482,0-8.128-3.121-8.128-6.958s3.646-6.957,8.128-6.957,8.128,3.121,8.128,6.957S464.585,725.81,460.1,725.81Zm0-13.261c-4.121,0-7.474,2.828-7.474,6.3s3.353,6.3,7.474,6.3,7.474-2.828,7.474-6.3S464.224,712.549,460.1,712.549Z" transform="translate(-451.975 -711.895)"/>
          </g>
        </g>
        <g id="Group_795" data-name="Group 795" transform="translate(130.311 11.699)">
          <g id="Group_794" data-name="Group 794">
            <path id="Path_1333" data-name="Path 1333" d="M717.2,456.857a.327.327,0,0,1-.316-.246l-.976-3.8a.327.327,0,1,1,.633-.163l.976,3.8a.328.328,0,0,1-.235.4A.336.336,0,0,1,717.2,456.857Zm-1.952-7.6a.328.328,0,0,1-.317-.246l-.976-3.8a.327.327,0,1,1,.633-.163l.976,3.8a.328.328,0,0,1-.235.4A.333.333,0,0,1,715.251,449.257Zm-1.952-7.6a.327.327,0,0,1-.316-.246l-.976-3.8a.327.327,0,1,1,.634-.163l.976,3.8a.327.327,0,0,1-.235.4A.337.337,0,0,1,713.3,441.657Zm-1.952-7.6a.327.327,0,0,1-.316-.246l-.976-3.8a.327.327,0,1,1,.633-.163l.976,3.8a.327.327,0,0,1-.235.4A.334.334,0,0,1,711.348,434.057Zm-1.952-7.6a.327.327,0,0,1-.317-.246l-.976-3.8a.327.327,0,1,1,.633-.163l.976,3.8a.327.327,0,0,1-.235.4A.334.334,0,0,1,709.4,426.457Zm-1.952-7.6a.328.328,0,0,1-.316-.246l-.976-3.8a.327.327,0,1,1,.634-.163l.976,3.8a.327.327,0,0,1-.235.4A.322.322,0,0,1,707.444,418.857Zm-1.952-7.6a.327.327,0,0,1-.316-.246l-.976-3.8a.327.327,0,0,1,.634-.163l.976,3.8a.327.327,0,0,1-.235.4A.317.317,0,0,1,705.492,411.257Zm-1.951-7.6a.327.327,0,0,1-.317-.246l-.976-3.8a.327.327,0,1,1,.633-.163l.976,3.8a.327.327,0,0,1-.235.4A.335.335,0,0,1,703.541,403.657Zm-1.952-7.6a.327.327,0,0,1-.316-.246l-.976-3.8a.327.327,0,1,1,.633-.163l.976,3.8a.328.328,0,0,1-.235.4A.322.322,0,0,1,701.589,396.058Zm-1.952-7.6a.327.327,0,0,1-.316-.246l-.976-3.8a.327.327,0,0,1,.634-.162l.976,3.8a.327.327,0,0,1-.235.4A.323.323,0,0,1,699.637,388.457Zm-1.951-7.6a.327.327,0,0,1-.317-.246l-.976-3.8a.327.327,0,0,1,.634-.163l.976,3.8a.327.327,0,0,1-.235.4A.335.335,0,0,1,697.685,380.857Zm-1.952-7.6a.327.327,0,0,1-.316-.246l-.976-3.8a.327.327,0,1,1,.633-.163l.976,3.8a.327.327,0,0,1-.235.4A.338.338,0,0,1,695.733,373.258Zm-1.952-7.6a.327.327,0,0,1-.316-.246l-.976-3.8a.327.327,0,0,1,.634-.162l.976,3.8a.328.328,0,0,1-.235.4A.334.334,0,0,1,693.781,365.658Zm-1.952-7.6a.327.327,0,0,1-.316-.246l-.976-3.8a.327.327,0,0,1,.634-.163l.976,3.8a.327.327,0,0,1-.235.4A.335.335,0,0,1,691.829,358.057Zm-1.951-7.6a.327.327,0,0,1-.316-.246l-.976-3.8a.327.327,0,1,1,.633-.163l.976,3.8a.327.327,0,0,1-.235.4A.319.319,0,0,1,689.878,350.458Zm-1.952-7.6a.328.328,0,0,1-.316-.246l-.976-3.8a.327.327,0,1,1,.633-.162l.976,3.8a.328.328,0,0,1-.235.4A.335.335,0,0,1,687.926,342.858Zm-1.952-7.6a.328.328,0,0,1-.316-.246l-.976-3.8a.327.327,0,0,1,.634-.162l.976,3.8a.327.327,0,0,1-.235.4A.334.334,0,0,1,685.974,335.258Zm-1.952-7.6a.327.327,0,0,1-.317-.246l-.976-3.8a.327.327,0,0,1,.634-.162l.976,3.8a.327.327,0,0,1-.235.4A.318.318,0,0,1,684.022,327.657Zm-1.952-7.6a.327.327,0,0,1-.316-.246l-.976-3.8a.327.327,0,1,1,.633-.162l.976,3.8a.328.328,0,0,1-.235.4A.334.334,0,0,1,682.071,320.058Zm-1.952-7.6a.328.328,0,0,1-.316-.246l-.976-3.8a.327.327,0,0,1,.633-.163l.976,3.8a.327.327,0,0,1-.235.4A.336.336,0,0,1,680.119,312.458Zm-1.952-7.6a.327.327,0,0,1-.316-.246l-.976-3.8a.327.327,0,1,1,.634-.163l.976,3.8a.327.327,0,0,1-.235.4A.337.337,0,0,1,678.167,304.858Zm-1.952-7.6a.327.327,0,0,1-.316-.246l-.976-3.8a.327.327,0,1,1,.633-.162l.976,3.8a.327.327,0,0,1-.235.4A.336.336,0,0,1,676.215,297.258Zm-1.952-7.6a.327.327,0,0,1-.316-.246l-.976-3.8a.327.327,0,0,1,.633-.163l.976,3.8a.328.328,0,0,1-.235.4A.32.32,0,0,1,674.263,289.658Zm-1.952-7.6a.327.327,0,0,1-.316-.246l-.976-3.8a.327.327,0,0,1,.634-.162l.976,3.8a.328.328,0,0,1-.235.4A.334.334,0,0,1,672.311,282.058Zm-1.952-7.6a.327.327,0,0,1-.316-.246l-.976-3.8a.327.327,0,1,1,.634-.163l.976,3.8a.327.327,0,0,1-.235.4A.334.334,0,0,1,670.359,274.458Zm-1.952-7.6a.327.327,0,0,1-.316-.246l-.976-3.8a.327.327,0,1,1,.633-.163l.976,3.8a.327.327,0,0,1-.235.4A.32.32,0,0,1,668.408,266.858Zm-1.952-7.6a.327.327,0,0,1-.316-.246l-.976-3.8a.327.327,0,0,1,.633-.162l.976,3.8a.328.328,0,0,1-.235.4A.333.333,0,0,1,666.456,259.258Z" transform="translate(-665.153 -254.804)" fill="#1a1a1a"/>
          </g>
        </g>
        <g id="Group_797" data-name="Group 797" transform="translate(89.243 18.875)">
          <g id="Group_796" data-name="Group 796">
            <path id="Path_1334" data-name="Path 1334" d="M540.043,277.252h37.282l2.223,7.2H541.761Z" transform="translate(-539.879 -277.089)" fill="#1c0311"/>
            <path id="Path_1335" data-name="Path 1335" d="M579.211,284.283H541.424a.163.163,0,0,1-.159-.125l-1.718-7.2a.164.164,0,0,1,.159-.2h37.282a.163.163,0,0,1,.156.115l2.223,7.2a.163.163,0,0,1-.156.212Zm-37.657-.327h37.436l-2.122-6.877H539.913Z" transform="translate(-539.543 -276.752)" fill="#1a1a1a"/>
          </g>
        </g>
        <g id="Group_799" data-name="Group 799" transform="translate(141.795 18.72)">
          <g id="Group_798" data-name="Group 798">
            <path id="Path_1336" data-name="Path 1336" d="M700.779,276.932l22.7-.155,2.223,7.2-23.2.155Z" transform="translate(-700.616 -276.613)" fill="#1c0311"/>
            <path id="Path_1337" data-name="Path 1337" d="M702.161,283.963a.163.163,0,0,1-.159-.125l-1.718-7.2a.164.164,0,0,1,.158-.2l22.7-.155h0a.164.164,0,0,1,.156.115l2.223,7.2a.164.164,0,0,1-.155.212l-23.2.155Zm-1.512-7.205,1.641,6.878,22.854-.153-2.122-6.878Z" transform="translate(-700.28 -276.277)" fill="#1a1a1a"/>
          </g>
        </g>
      </g>
    </g>
  </g>
</svg>
